<svg id="Layer_1" data-name="Layer 1" xmlns="http://www.w3.org/2000/svg" xmlns:xlink="http://www.w3.org/1999/xlink" viewBox="0 0 400 355.72"><defs><linearGradient id="linear-gradient" x1="125.4" y1="177.86" x2="274.6" y2="177.86" gradientUnits="userSpaceOnUse"><stop offset="0" stop-color="#056766"/><stop offset="0.16" stop-color="#0c6d6d"/><stop offset="0.4" stop-color="#1e7f80"/><stop offset="0.68" stop-color="#3d9b9f"/><stop offset="1" stop-color="#67c2ca"/><stop offset="1" stop-color="#68c3cb"/></linearGradient></defs><title>الطلبات</title><path d="M204.22,78.47A4.22,4.22,0,1,1,200,74.24,4.22,4.22,0,0,1,204.22,78.47Zm11.39,1.73a4.22,4.22,0,1,1-3.43-4.89A4.23,4.23,0,0,1,215.61,80.2Zm10.91,3.69A4.22,4.22,0,1,1,224,78.47,4.22,4.22,0,0,1,226.52,83.89Zm10.1,5.52a4.22,4.22,0,1,1-1.54-5.77A4.23,4.23,0,0,1,236.62,89.41Zm9,7.2a4.22,4.22,0,1,1-.52-6A4.23,4.23,0,0,1,245.61,96.61Zm7.61,8.64a4.22,4.22,0,1,1,.52-6A4.22,4.22,0,0,1,253.22,105.25Zm6,9.84a4.22,4.22,0,1,1,1.55-5.77A4.23,4.23,0,0,1,259.21,115.09Zm4.19,10.73a4.22,4.22,0,1,1,2.52-5.42A4.23,4.23,0,0,1,263.4,125.82Zm2.26,11.29a4.22,4.22,0,1,1,3.43-4.89A4.23,4.23,0,0,1,265.66,137.11Zm.27,11.51a4.22,4.22,0,1,1,4.22-4.22A4.22,4.22,0,0,1,265.93,148.62ZM264.2,160a4.22,4.22,0,1,1,4.89-3.43A4.24,4.24,0,0,1,264.2,160Zm-3.69,10.91a4.22,4.22,0,1,1,5.41-2.53A4.23,4.23,0,0,1,260.51,170.92ZM255,181a4.22,4.22,0,1,1,5.77-1.54A4.23,4.23,0,0,1,255,181Zm-7.2,9a4.22,4.22,0,1,1,6-.52A4.23,4.23,0,0,1,247.79,190Zm-8.64,7.61a4.22,4.22,0,1,1,5.94.52A4.22,4.22,0,0,1,239.15,197.62Zm-9.84,6a4.22,4.22,0,1,1,5.77,1.54A4.23,4.23,0,0,1,229.31,203.61Zm-10.73,4.19a4.22,4.22,0,1,1,5.41,2.52A4.21,4.21,0,0,1,218.58,207.8Zm-11.29,2.26a4.22,4.22,0,1,1,4.89,3.43A4.23,4.23,0,0,1,207.29,210.06Zm-11.51.27a4.22,4.22,0,1,1,4.22,4.22A4.22,4.22,0,0,1,195.78,210.33Zm-11.39-1.73a4.22,4.22,0,1,1,3.43,4.89A4.23,4.23,0,0,1,184.39,208.6Zm-10.91-3.69a4.22,4.22,0,1,1,2.53,5.41A4.22,4.22,0,0,1,173.48,204.91Zm-10.1-5.52a4.22,4.22,0,1,1,1.54,5.76A4.22,4.22,0,0,1,163.38,199.39Zm-9-7.2a4.22,4.22,0,1,1,.52,5.95A4.21,4.21,0,0,1,154.39,192.19Zm-7.61-8.65a4.22,4.22,0,1,1-.52,6A4.24,4.24,0,0,1,146.78,183.54Zm-6-9.83a4.22,4.22,0,1,1-1.55,5.77A4.22,4.22,0,0,1,140.79,173.71ZM136.6,163a4.22,4.22,0,1,1-2.52,5.41A4.22,4.22,0,0,1,136.6,163Zm-2.26-11.29a4.22,4.22,0,1,1-3.43,4.89A4.22,4.22,0,0,1,134.34,151.69Zm-.27-11.51a4.22,4.22,0,1,1-4.22,4.22A4.22,4.22,0,0,1,134.07,140.18Zm1.73-11.39a4.22,4.22,0,1,1-4.89,3.43A4.23,4.23,0,0,1,135.8,128.79Zm3.69-10.91a4.22,4.22,0,1,1-5.41,2.52A4.22,4.22,0,0,1,139.49,117.88Zm5.52-10.1a4.22,4.22,0,1,1-5.77,1.54A4.22,4.22,0,0,1,145,107.78Zm7.2-9a4.22,4.22,0,1,1-6,.52A4.23,4.23,0,0,1,152.21,98.78Zm8.64-7.6a4.22,4.22,0,1,1-5.94-.52A4.22,4.22,0,0,1,160.85,91.18Zm9.84-6a4.22,4.22,0,1,1-5.77-1.55A4.23,4.23,0,0,1,170.69,85.19ZM181.42,81A4.22,4.22,0,1,1,176,78.47,4.22,4.22,0,0,1,181.42,81Zm11.29-2.27a4.22,4.22,0,1,1-4.89-3.42A4.24,4.24,0,0,1,192.71,78.73Zm11.62,8.54a2.76,2.76,0,1,0,2.55,3A2.77,2.77,0,0,0,204.33,87.27Zm9.85,1.62a2.76,2.76,0,1,0,2,3.36A2.76,2.76,0,0,0,214.18,88.89Zm9.43,3.3A2.77,2.77,0,1,0,225,95.85,2.77,2.77,0,0,0,223.61,92.19Zm8.7,4.89a2.76,2.76,0,1,0,.73,3.85A2.77,2.77,0,0,0,232.31,97.08Zm7.73,6.33a2.77,2.77,0,1,0,.05,3.91A2.77,2.77,0,0,0,240,103.41Zm6.51,7.58a2.76,2.76,0,1,0-.64,3.86A2.77,2.77,0,0,0,246.55,111Zm5.09,8.59a2.76,2.76,0,1,0-1.29,3.69A2.76,2.76,0,0,0,251.64,119.58Zm3.53,9.35a2.77,2.77,0,1,0-1.92,3.4A2.77,2.77,0,0,0,255.17,128.93Zm1.85,9.81a2.76,2.76,0,1,0-2.48,3A2.77,2.77,0,0,0,257,138.74Zm.11,10a2.76,2.76,0,1,0-3,2.54A2.76,2.76,0,0,0,257.13,148.73Zm-1.62,9.85a2.76,2.76,0,1,0-3.36,2A2.76,2.76,0,0,0,255.51,158.58Zm-3.3,9.43a2.77,2.77,0,1,0-3.66,1.38A2.77,2.77,0,0,0,252.21,168Zm-4.9,8.7a2.76,2.76,0,1,0-3.84.73A2.76,2.76,0,0,0,247.31,176.71ZM241,184.44a2.76,2.76,0,1,0-3.91,0A2.76,2.76,0,0,0,241,184.44ZM233.41,191a2.77,2.77,0,1,0-3.86-.64A2.77,2.77,0,0,0,233.41,191ZM224.82,196a2.76,2.76,0,1,0-3.69-1.29A2.77,2.77,0,0,0,224.82,196Zm-9.35,3.53a2.77,2.77,0,1,0-3.4-1.92A2.77,2.77,0,0,0,215.47,199.57Zm-9.81,1.84a2.76,2.76,0,1,0-3-2.47A2.76,2.76,0,0,0,205.66,201.41Zm-10,.12a2.76,2.76,0,1,0-2.55-3A2.77,2.77,0,0,0,195.67,201.53Zm-9.85-1.62a2.76,2.76,0,1,0-2-3.36A2.76,2.76,0,0,0,185.82,199.91Zm-9.43-3.31A2.76,2.76,0,1,0,175,193,2.76,2.76,0,0,0,176.39,196.6Zm-8.7-4.89a2.76,2.76,0,1,0-.73-3.84A2.76,2.76,0,0,0,167.69,191.71ZM160,185.38a2.76,2.76,0,1,0-.05-3.91A2.76,2.76,0,0,0,160,185.38Zm-6.51-7.57a2.77,2.77,0,1,0,.64-3.86A2.77,2.77,0,0,0,153.45,177.81Zm-5.09-8.59a2.76,2.76,0,1,0,1.29-3.69A2.77,2.77,0,0,0,148.36,169.22Zm-3.53-9.35a2.77,2.77,0,1,0,1.92-3.41A2.77,2.77,0,0,0,144.83,159.87ZM143,150.06a2.76,2.76,0,1,0,2.48-3A2.76,2.76,0,0,0,143,150.06Zm-.11-10a2.76,2.76,0,1,0,3-2.55A2.75,2.75,0,0,0,142.87,140.07Zm1.62-9.86a2.76,2.76,0,1,0,3.36-2A2.77,2.77,0,0,0,144.49,130.21Zm3.3-9.42a2.77,2.77,0,1,0,3.66-1.38A2.77,2.77,0,0,0,147.79,120.79Zm4.9-8.71a2.76,2.76,0,1,0,3.84-.72A2.76,2.76,0,0,0,152.69,112.08Zm6.33-7.72a2.76,2.76,0,1,0,3.91,0A2.76,2.76,0,0,0,159,104.36Zm7.57-6.51a2.77,2.77,0,1,0,3.86.63A2.77,2.77,0,0,0,166.59,97.85Zm8.59-5.09a2.76,2.76,0,1,0,3.69,1.29A2.76,2.76,0,0,0,175.18,92.76Zm9.35-3.53a2.76,2.76,0,1,0,3.4,1.92A2.77,2.77,0,0,0,184.53,89.23Zm9.81-1.85a2.76,2.76,0,1,0,3,2.48A2.77,2.77,0,0,0,194.34,87.38ZM207.8,97.44a1.75,1.75,0,0,0-2,1.44,1.75,1.75,0,0,0,3.45.58A1.76,1.76,0,0,0,207.8,97.44Zm8,2.07a1.75,1.75,0,1,0,1.07,2.23A1.75,1.75,0,0,0,215.83,99.51Zm7.56,3.43a1.75,1.75,0,1,0,.66,2.39A1.77,1.77,0,0,0,223.39,102.94Zm6.84,4.69a1.75,1.75,0,1,0,.24,2.47A1.75,1.75,0,0,0,230.23,107.63Zm5.92,5.81a1.75,1.75,0,1,0-.19,2.47A1.74,1.74,0,0,0,236.15,113.44Zm4.83,6.75a1.75,1.75,0,1,0-.62,2.4A1.75,1.75,0,0,0,241,120.19Zm3.58,7.48a1.75,1.75,0,1,0-1,2.26A1.75,1.75,0,0,0,244.56,127.67Zm2.23,8a1.75,1.75,0,1,0-1.4,2A1.75,1.75,0,0,0,246.79,135.67Zm.8,8.25a1.75,1.75,0,1,0-1.73,1.77A1.75,1.75,0,0,0,247.59,143.92ZM247,152.2a1.75,1.75,0,1,0-2,1.43A1.75,1.75,0,0,0,247,152.2Zm-2.06,8a1.75,1.75,0,1,0-2.23,1.07A1.75,1.75,0,0,0,244.89,160.23Zm-3.44,7.55a1.74,1.74,0,1,0-2.38.67A1.74,1.74,0,0,0,241.45,167.78Zm-4.69,6.85a1.75,1.75,0,1,0-2.7-2.22,1.75,1.75,0,1,0,2.7,2.22Zm-5.8,5.92a1.75,1.75,0,1,0-2.47-.19A1.74,1.74,0,0,0,231,180.55Zm-6.75,4.83a1.75,1.75,0,1,0-2.4-.62A1.75,1.75,0,0,0,224.21,185.38ZM216.72,189a1.75,1.75,0,1,0-2.25-1A1.75,1.75,0,0,0,216.72,189Zm-8,2.23a1.75,1.75,0,1,0-2-1.4A1.75,1.75,0,0,0,208.73,191.19Zm-8.26.8a1.75,1.75,0,1,0-1.76-1.73A1.74,1.74,0,0,0,200.47,192Zm-8.27-.64a1.75,1.75,0,1,0-1.44-2A1.76,1.76,0,0,0,192.2,191.35Zm-8-2.07a1.74,1.74,0,1,0-1.07-2.23A1.74,1.74,0,0,0,184.17,189.28Zm-7.56-3.43a1.75,1.75,0,1,0-.66-2.38A1.75,1.75,0,0,0,176.61,185.85Zm-6.84-4.69a1.75,1.75,0,1,0-.24-2.46A1.74,1.74,0,0,0,169.77,181.16Zm-5.92-5.81a1.74,1.74,0,1,0,.19-2.46A1.74,1.74,0,0,0,163.85,175.35ZM159,168.61a1.75,1.75,0,1,0,.62-2.4A1.74,1.74,0,0,0,159,168.61Zm-3.58-7.49a1.75,1.75,0,1,0,1-2.25A1.74,1.74,0,0,0,155.44,161.12Zm-2.23-8a1.75,1.75,0,1,0,1.4-2A1.76,1.76,0,0,0,153.21,153.13Zm-.8-8.26a1.75,1.75,0,1,0,1.73-1.76A1.74,1.74,0,0,0,152.41,144.87Zm.64-8.27a1.75,1.75,0,1,0,2-1.44A1.74,1.74,0,0,0,153.05,136.6Zm2.06-8a1.75,1.75,0,1,0,2.23-1.07A1.75,1.75,0,0,0,155.11,128.57Zm3.44-7.56a1.75,1.75,0,1,0,2.38-.66A1.74,1.74,0,0,0,158.55,121Zm4.69-6.84a1.75,1.75,0,1,0,2.46-.24A1.74,1.74,0,0,0,163.24,114.17Zm5.8-5.93a1.75,1.75,0,1,0,2.47.19A1.76,1.76,0,0,0,169,108.24Zm6.75-4.82a1.75,1.75,0,1,0,2.4.61A1.74,1.74,0,0,0,175.79,103.42Zm7.49-3.58a1.75,1.75,0,1,0,2.25,1A1.74,1.74,0,0,0,183.28,99.84Zm8-2.23a1.75,1.75,0,1,0,2,1.4A1.75,1.75,0,0,0,191.27,97.61Zm8.26-.81a1.75,1.75,0,1,0,1.76,1.73A1.75,1.75,0,0,0,199.53,96.8Zm1.52,26h-4.43V157h4.43Zm15.38,23-3.14-3.13-14.45,14.45-14.46-14.45-3.14,3.13,17.6,17.59Zm2.45,19.71H178.79V170h40.09Zm-60.3,86a46.57,46.57,0,0,1,2.8,10.09,106.2,106.2,0,0,1-20.18,1.88q-6.36,0-9.12-1.88c-1.81-1.25-2.73-3.33-2.73-6.24a23.24,23.24,0,0,1,1-6.38h-2.73a21.31,21.31,0,0,0-2.25,9.29q0,5.93,3.7,8.79T140.55,270a87.19,87.19,0,0,0,22.89-2.83,13.21,13.21,0,0,0,1.83-7.44,31.64,31.64,0,0,0-2.53-11.84ZM152.82,245l-4.58-3.48L145.06,245l4.63,3.48Zm-7.76,0-4.61-3.48L137.29,245l4.64,3.48Zm39.11,32.86,4.84,3.58,3.2-3.58-4.78-3.59Zm73.23-15.28a16.75,16.75,0,0,1-5,.63h-5.71a6.49,6.49,0,0,0,.56-2.06,13.87,13.87,0,0,0-2.73-8.26q-2.83-4-6.49-4-4.41,0-11.6,7.14h-.32V232.24l-4.48,1.43v27.6l-1.71,2h-3.83q-3.45,0-4.81-1.41c-.91-.91-1.37-2.59-1.37-5V231.89l-4.44,1.86v23.08q0,3.54-1.2,5a4.71,4.71,0,0,1-3.83,1.41c-3.17,0-5.22-.44-6.13-1.31S192.8,259,193,256l.17-3.13-3,.65-.45,3.36q-.59,4-1.83,5.18c-.82.8-2.4,1.21-4.73,1.21h0c-2.62,0-4.4-.46-5.33-1.36s-1.36-2.55-1.36-5v-25L172,233.75v25.19c0,3.67.82,6.38,2.48,8.11s4.14,2.56,7.51,2.56h0a18.61,18.61,0,0,0,5.86-.7,5.92,5.92,0,0,0,3.06-2.41,6.53,6.53,0,0,0,3.15,2.41,15.55,15.55,0,0,0,5.19.7,16.23,16.23,0,0,0,5.38-.7,5.89,5.89,0,0,0,3-2.41,6.08,6.08,0,0,0,2.81,2.41,11.7,11.7,0,0,0,4.43.7h36.31a17.32,17.32,0,0,0,7.51-1.28q3.13-3.43,3.14-9.92V231.89l-4.46,1.86ZM223.46,264q8.47-9.09,13.45-9.09a5.52,5.52,0,0,1,4.46,2.28,11.16,11.16,0,0,1,2.18,5Q237.57,263.9,223.46,264Zm46.68-30.22v36.11h1.51l3-6.44V231.89Z" style="fill-rule:evenodd;fill:url(#linear-gradient)"/></svg>