<svg id="Layer_1" data-name="Layer 1" xmlns="http://www.w3.org/2000/svg" xmlns:xlink="http://www.w3.org/1999/xlink" viewBox="0 0 400 355.72"><defs><linearGradient id="linear-gradient" x1="105.66" y1="177.86" x2="294.34" y2="177.86" gradientUnits="userSpaceOnUse"><stop offset="0" stop-color="#056766"/><stop offset="0.16" stop-color="#0c6d6d"/><stop offset="0.4" stop-color="#1e7f80"/><stop offset="0.68" stop-color="#3d9b9f"/><stop offset="1" stop-color="#67c2ca"/><stop offset="1" stop-color="#68c3cb"/></linearGradient></defs><title>الإعدادات</title><path d="M204.22,76.78A4.22,4.22,0,1,1,200,72.55,4.22,4.22,0,0,1,204.22,76.78Zm11.39,1.73a4.22,4.22,0,1,1-3.43-4.89A4.23,4.23,0,0,1,215.61,78.51Zm10.91,3.69A4.22,4.22,0,1,1,224,76.78,4.22,4.22,0,0,1,226.52,82.2Zm10.1,5.52A4.22,4.22,0,1,1,235.08,82,4.23,4.23,0,0,1,236.62,87.72Zm9,7.2a4.22,4.22,0,1,1-.52-6A4.23,4.23,0,0,1,245.61,94.92Zm7.61,8.64a4.22,4.22,0,1,1,.52-6A4.22,4.22,0,0,1,253.22,103.56Zm6,9.84a4.22,4.22,0,1,1,1.55-5.77A4.23,4.23,0,0,1,259.21,113.4Zm4.19,10.73a4.22,4.22,0,1,1,2.52-5.42A4.23,4.23,0,0,1,263.4,124.13Zm2.26,11.29a4.22,4.22,0,1,1,3.43-4.89A4.23,4.23,0,0,1,265.66,135.42Zm.27,11.51a4.22,4.22,0,1,1,4.22-4.22A4.22,4.22,0,0,1,265.93,146.93Zm-1.73,11.38a4.22,4.22,0,1,1,4.89-3.42A4.22,4.22,0,0,1,264.2,158.31Zm-3.69,10.92a4.22,4.22,0,1,1,5.41-2.53A4.23,4.23,0,0,1,260.51,169.23ZM255,179.33a4.22,4.22,0,1,1,5.77-1.55A4.23,4.23,0,0,1,255,179.33Zm-7.2,9a4.22,4.22,0,1,1,6-.52A4.23,4.23,0,0,1,247.79,188.32Zm-8.64,7.61a4.22,4.22,0,1,1,5.94.52A4.22,4.22,0,0,1,239.15,195.93Zm-9.84,6a4.22,4.22,0,1,1,5.77,1.54A4.23,4.23,0,0,1,229.31,201.92Zm-10.73,4.19a4.22,4.22,0,1,1,5.41,2.52A4.21,4.21,0,0,1,218.58,206.11Zm-11.29,2.26a4.22,4.22,0,1,1,4.89,3.43A4.22,4.22,0,0,1,207.29,208.37Zm-11.51.27a4.22,4.22,0,1,1,4.22,4.22A4.22,4.22,0,0,1,195.78,208.64Zm-11.39-1.74a4.22,4.22,0,1,1,3.43,4.9A4.23,4.23,0,0,1,184.39,206.9Zm-10.91-3.68a4.22,4.22,0,1,1,2.53,5.41A4.22,4.22,0,0,1,173.48,203.22Zm-10.1-5.52a4.22,4.22,0,1,1,1.54,5.76A4.22,4.22,0,0,1,163.38,197.7Zm-9-7.2a4.22,4.22,0,1,1,.52,5.95A4.21,4.21,0,0,1,154.39,190.5Zm-7.61-8.65a4.22,4.22,0,1,1-.52,6A4.23,4.23,0,0,1,146.78,181.85Zm-6-9.83a4.22,4.22,0,1,1-1.55,5.76A4.22,4.22,0,0,1,140.79,172Zm-4.19-10.73a4.22,4.22,0,1,1-2.52,5.41A4.22,4.22,0,0,1,136.6,161.29ZM134.34,150a4.22,4.22,0,1,1-3.43,4.89A4.22,4.22,0,0,1,134.34,150Zm-.27-11.51a4.22,4.22,0,1,1-4.22,4.22A4.22,4.22,0,0,1,134.07,138.49Zm1.73-11.39a4.22,4.22,0,1,1-4.89,3.43A4.23,4.23,0,0,1,135.8,127.1Zm3.69-10.91a4.22,4.22,0,1,1-5.41,2.52A4.22,4.22,0,0,1,139.49,116.19Zm5.52-10.1a4.22,4.22,0,1,1-5.77,1.54A4.22,4.22,0,0,1,145,106.09Zm7.2-9a4.22,4.22,0,1,1-6,.52A4.23,4.23,0,0,1,152.21,97.09Zm8.64-7.6a4.22,4.22,0,1,1-5.94-.52A4.22,4.22,0,0,1,160.85,89.49Zm9.84-6A4.22,4.22,0,1,1,164.92,82,4.23,4.23,0,0,1,170.69,83.5Zm10.73-4.19A4.22,4.22,0,1,1,176,76.78,4.22,4.22,0,0,1,181.42,79.31ZM192.71,77a4.22,4.22,0,1,1-4.89-3.42A4.24,4.24,0,0,1,192.71,77Zm11.62,8.54a2.76,2.76,0,1,0,2.55,3A2.77,2.77,0,0,0,204.33,85.58Zm9.85,1.62a2.76,2.76,0,1,0,2,3.36A2.76,2.76,0,0,0,214.18,87.2Zm9.43,3.3A2.77,2.77,0,1,0,225,94.16,2.77,2.77,0,0,0,223.61,90.5Zm8.7,4.89a2.76,2.76,0,1,0,.73,3.85A2.77,2.77,0,0,0,232.31,95.39Zm7.73,6.33a2.77,2.77,0,1,0,.05,3.91A2.77,2.77,0,0,0,240,101.72Zm6.51,7.58a2.76,2.76,0,1,0-.64,3.86A2.77,2.77,0,0,0,246.55,109.3Zm5.09,8.59a2.76,2.76,0,1,0-1.29,3.69A2.76,2.76,0,0,0,251.64,117.89Zm3.53,9.34a2.77,2.77,0,1,0-1.92,3.41A2.78,2.78,0,0,0,255.17,127.23Zm1.85,9.82a2.76,2.76,0,1,0-2.48,3A2.77,2.77,0,0,0,257,137.05Zm.11,10a2.76,2.76,0,1,0-3,2.54A2.76,2.76,0,0,0,257.13,147Zm-1.62,9.85a2.76,2.76,0,1,0-3.36,2A2.76,2.76,0,0,0,255.51,156.89Zm-3.3,9.43a2.77,2.77,0,1,0-3.66,1.38A2.76,2.76,0,0,0,252.21,166.32Zm-4.9,8.7a2.76,2.76,0,1,0-3.84.73A2.76,2.76,0,0,0,247.31,175ZM241,182.75a2.76,2.76,0,1,0-3.91,0A2.76,2.76,0,0,0,241,182.75Zm-7.57,6.51a2.77,2.77,0,1,0-3.86-.64A2.77,2.77,0,0,0,233.41,189.26Zm-8.59,5.09a2.76,2.76,0,1,0-3.69-1.29A2.77,2.77,0,0,0,224.82,194.35Zm-9.35,3.52a2.76,2.76,0,1,0-3.4-1.91A2.76,2.76,0,0,0,215.47,197.87Zm-9.81,1.85a2.76,2.76,0,1,0-3-2.47A2.76,2.76,0,0,0,205.66,199.72Zm-10,.12a2.76,2.76,0,1,0-2.55-3A2.77,2.77,0,0,0,195.67,199.84Zm-9.85-1.62a2.76,2.76,0,1,0-2-3.36A2.76,2.76,0,0,0,185.82,198.22Zm-9.43-3.31a2.76,2.76,0,1,0-1.38-3.65A2.76,2.76,0,0,0,176.39,194.91Zm-8.7-4.89a2.76,2.76,0,1,0-.73-3.84A2.76,2.76,0,0,0,167.69,190ZM160,183.69a2.76,2.76,0,1,0-.05-3.91A2.76,2.76,0,0,0,160,183.69Zm-6.51-7.57a2.77,2.77,0,1,0,.64-3.86A2.77,2.77,0,0,0,153.45,176.12Zm-5.09-8.59a2.76,2.76,0,1,0,1.29-3.69A2.77,2.77,0,0,0,148.36,167.53Zm-3.53-9.35a2.77,2.77,0,1,0,1.92-3.41A2.77,2.77,0,0,0,144.83,158.18ZM143,148.37a2.76,2.76,0,1,0,2.48-3A2.77,2.77,0,0,0,143,148.37Zm-.11-10a2.76,2.76,0,1,0,3-2.55A2.75,2.75,0,0,0,142.87,138.38Zm1.62-9.86a2.76,2.76,0,1,0,3.36-2A2.77,2.77,0,0,0,144.49,128.52Zm3.3-9.42a2.77,2.77,0,1,0,3.66-1.38A2.77,2.77,0,0,0,147.79,119.1Zm4.9-8.71a2.76,2.76,0,1,0,3.84-.72A2.76,2.76,0,0,0,152.69,110.39Zm6.33-7.72a2.76,2.76,0,1,0,3.91,0A2.76,2.76,0,0,0,159,102.67Zm7.57-6.51a2.77,2.77,0,1,0,3.86.63A2.77,2.77,0,0,0,166.59,96.16Zm8.59-5.09a2.76,2.76,0,1,0,3.69,1.29A2.76,2.76,0,0,0,175.18,91.07Zm9.35-3.53a2.76,2.76,0,1,0,3.4,1.92A2.77,2.77,0,0,0,184.53,87.54Zm9.81-1.85a2.76,2.76,0,1,0,3,2.48A2.77,2.77,0,0,0,194.34,85.69ZM207.8,95.75a1.75,1.75,0,0,0-2,1.44,1.75,1.75,0,0,0,3.45.58A1.76,1.76,0,0,0,207.8,95.75Zm8,2.07a1.75,1.75,0,1,0,1.07,2.23A1.75,1.75,0,0,0,215.83,97.82Zm7.56,3.43a1.75,1.75,0,1,0,.66,2.39A1.77,1.77,0,0,0,223.39,101.25Zm6.84,4.69a1.75,1.75,0,1,0,.24,2.47A1.75,1.75,0,0,0,230.23,105.94Zm5.92,5.81a1.75,1.75,0,1,0-.19,2.47A1.74,1.74,0,0,0,236.15,111.75ZM241,118.5a1.75,1.75,0,1,0-.62,2.4A1.75,1.75,0,0,0,241,118.5Zm3.58,7.48a1.75,1.75,0,1,0-1,2.26A1.75,1.75,0,0,0,244.56,126Zm2.23,8a1.75,1.75,0,1,0-1.4,2A1.75,1.75,0,0,0,246.79,134Zm.8,8.25a1.75,1.75,0,1,0-1.73,1.77A1.75,1.75,0,0,0,247.59,142.23Zm-.64,8.28a1.75,1.75,0,1,0-2,1.43A1.75,1.75,0,0,0,247,150.51Zm-2.06,8a1.75,1.75,0,1,0-2.23,1.07A1.75,1.75,0,0,0,244.89,158.54Zm-3.44,7.55a1.74,1.74,0,1,0-2.38.67A1.74,1.74,0,0,0,241.45,166.09Zm-4.69,6.85a1.75,1.75,0,1,0-2.7-2.22,1.75,1.75,0,1,0,2.7,2.22Zm-5.8,5.92a1.75,1.75,0,1,0-2.47-.19A1.74,1.74,0,0,0,231,178.86Zm-6.75,4.83a1.75,1.75,0,1,0-2.4-.62A1.75,1.75,0,0,0,224.21,183.69Zm-7.49,3.58a1.75,1.75,0,1,0-2.25-1A1.75,1.75,0,0,0,216.72,187.27Zm-8,2.23a1.75,1.75,0,1,0-2-1.4A1.75,1.75,0,0,0,208.73,189.5Zm-8.26.8a1.75,1.75,0,1,0-1.76-1.73A1.74,1.74,0,0,0,200.47,190.3Zm-8.27-.64a1.75,1.75,0,1,0-1.44-2A1.76,1.76,0,0,0,192.2,189.66Zm-8-2.07a1.74,1.74,0,1,0-1.07-2.23A1.74,1.74,0,0,0,184.17,187.59Zm-7.56-3.43a1.75,1.75,0,1,0-.66-2.38A1.75,1.75,0,0,0,176.61,184.16Zm-6.84-4.69a1.75,1.75,0,1,0-.24-2.46A1.74,1.74,0,0,0,169.77,179.47Zm-5.92-5.81a1.74,1.74,0,1,0,.19-2.46A1.73,1.73,0,0,0,163.85,173.66ZM159,166.92a1.75,1.75,0,1,0,.62-2.4A1.74,1.74,0,0,0,159,166.92Zm-3.58-7.49a1.75,1.75,0,1,0,1-2.25A1.74,1.74,0,0,0,155.44,159.43Zm-2.23-8a1.75,1.75,0,1,0,1.4-2A1.76,1.76,0,0,0,153.21,151.44Zm-.8-8.26a1.75,1.75,0,1,0,1.73-1.76A1.74,1.74,0,0,0,152.41,143.18Zm.64-8.27a1.75,1.75,0,1,0,2-1.44A1.74,1.74,0,0,0,153.05,134.91Zm2.06-8a1.75,1.75,0,1,0,3.3,1.17,1.75,1.75,0,0,0-3.3-1.17Zm3.44-7.55a1.75,1.75,0,1,0,2.38-.66A1.74,1.74,0,0,0,158.55,119.32Zm4.69-6.84a1.74,1.74,0,0,0,.24,2.46,1.75,1.75,0,1,0,2.22-2.7A1.74,1.74,0,0,0,163.24,112.48Zm5.8-5.93a1.75,1.75,0,1,0,2.47.19A1.76,1.76,0,0,0,169,106.55Zm6.75-4.82a1.75,1.75,0,1,0,2.4.61A1.74,1.74,0,0,0,175.79,101.73Zm7.49-3.58a1.75,1.75,0,1,0,2.25,1A1.74,1.74,0,0,0,183.28,98.15Zm8-2.23a1.75,1.75,0,1,0,2,1.4A1.75,1.75,0,0,0,191.27,95.92Zm8.26-.81a1.75,1.75,0,1,0,1.76,1.73A1.75,1.75,0,0,0,199.53,95.11Zm29.86,54.5-6.54-3.77a30.08,30.08,0,0,0,.2-3.14,29.34,29.34,0,0,0-.2-3.11l6.54-3.77a.78.78,0,0,0,.42-.57.74.74,0,0,0-.09-.7L222,121a1,1,0,0,0-.58-.43,1.16,1.16,0,0,0-.72.1l-6.54,3.77a22.88,22.88,0,0,0-5.38-3.1V113.8a.94.94,0,0,0-.95-.91H192.21a.93.93,0,0,0-.92.91v7.58a22.81,22.81,0,0,0-5.4,3.1l-6.54-3.77a1.14,1.14,0,0,0-.73-.1,1.08,1.08,0,0,0-.57.43l-7.79,13.51a1,1,0,0,0-.09.7.86.86,0,0,0,.46.57l6.52,3.77a24.84,24.84,0,0,0-.18,3.11,25.43,25.43,0,0,0,.18,3.14l-6.52,3.77a.92.92,0,0,0-.37,1.26l7.79,13.5a1.08,1.08,0,0,0,.57.43,1.14,1.14,0,0,0,.73-.08l6.54-3.77a23.12,23.12,0,0,0,5.4,3.09v7.57a.93.93,0,0,0,.92.93h15.57a.94.94,0,0,0,.95-.93V164a23.19,23.19,0,0,0,5.38-3.09l6.54,3.77a1.14,1.14,0,0,0,.72.08,1,1,0,0,0,.58-.43l7.77-13.5A.92.92,0,0,0,229.39,149.61ZM200,126.33a16.38,16.38,0,1,0,16.38,16.37A16.38,16.38,0,0,0,200,126.33ZM138.85,249.89a47.15,47.15,0,0,1,2.8,10.09,106.36,106.36,0,0,1-20.18,1.88q-6.36,0-9.12-1.88t-2.73-6.24a22.86,22.86,0,0,1,1-6.38h-2.73a21.33,21.33,0,0,0-2.26,9.29q0,5.93,3.71,8.79t11.45,2.85a87.17,87.17,0,0,0,22.88-2.83,13.21,13.21,0,0,0,1.83-7.44A31.45,31.45,0,0,0,143,246.18Zm-13.53-6.54-4.6-3.48-3.16,3.48,4.63,3.48Zm7.77,0-4.59-3.48-3.18,3.48,4.64,3.48Zm19.15,24.82h1.51l2.95-6.44V230.2l-4.46,1.86Zm21.42-21.77q5.07,8.22,6,14.35a24,24,0,0,1-7,.86,14.63,14.63,0,0,1-5.13-.63,2.19,2.19,0,0,1-1.55-2.1l.05-.68h-1.76a10,10,0,0,0-.55,3.28q0,6.43,8.62,6.44a23.81,23.81,0,0,0,9.54-1.78,11.82,11.82,0,0,0,1.55-6.49q0-7.68-5.18-16.8Zm16.45,21.77h1.5l3-6.44V230.2l-4.46,1.86Zm51.74-8.79c-3-1.06-4.93-2.58-5.86-4.59a7.71,7.71,0,0,1,3.63-2.7,15,15,0,0,1,5.58-1,22.34,22.34,0,0,1,5,.48l.05-1.8-5.08-3.86a7.85,7.85,0,0,0-1.83-.18,10.52,10.52,0,0,0-7.31,2.83,8.84,8.84,0,0,0-3.08,6.79A6.53,6.53,0,0,0,234,259a6.88,6.88,0,0,0,2.63,2.45v.16h-7.67a8,8,0,0,1-4.73-1.11c-1-.73-1.84-2.21-2.63-4.43L217,242.6l-4,3.1,5.23,15.23a39.46,39.46,0,0,1-7.64.68,14.63,14.63,0,0,1-5.13-.63,2.21,2.21,0,0,1-1.58-2.1l0-.68h-1.75a9.69,9.69,0,0,0-.55,3.28q0,6.43,8.66,6.44a28.09,28.09,0,0,0,7.72-1l1.7-3a7.92,7.92,0,0,0,3.28,3,10.88,10.88,0,0,0,4.83.93h0a193.64,193.64,0,0,0,21.93-1.41l3.31-.4,1.2-6-2.83.28A22,22,0,0,1,241.85,259.38Zm39.39-21V230.2l-4.48,1.86v6.31q0,7.15-1.46,11.06a105.39,105.39,0,0,0-15.5-16l-1,5.71a90.17,90.17,0,0,1,14.35,14.37q-2.81,3.92-10.29,8.87l-.73,5.56h18.28a10.68,10.68,0,0,0,1.15-4.79q0-4.08-3.68-10Q281.24,247.74,281.24,238.34Zm-2.88,24H267.87a39.53,39.53,0,0,0,7.51-6A19.57,19.57,0,0,1,278.36,262.36Zm-13.27,15.87a3.67,3.67,0,0,1-2.66-1.55,3.85,3.85,0,0,1,3.31-1.33,8.56,8.56,0,0,1,2.25.28l.75-3.13a6.67,6.67,0,0,0-2.63-.48,6,6,0,0,0-4,1.43,4.25,4.25,0,0,0-1.7,3.36,3.29,3.29,0,0,0,1.48,2.9v.05l-2,.5-.52,2.91,10.19-2.43.57-3-.67.2A10.17,10.17,0,0,1,265.09,278.23Zm24.79-46.17v36.11h1.5l3-6.44V230.2Z" style="fill-rule:evenodd;fill:url(#linear-gradient)"/></svg>