<svg id="Layer_1" data-name="Layer 1" xmlns="http://www.w3.org/2000/svg" xmlns:xlink="http://www.w3.org/1999/xlink" viewBox="0 0 400 355"><defs><linearGradient id="linear-gradient" x1="127.2" y1="152.53" x2="272.8" y2="152.53" gradientUnits="userSpaceOnUse"><stop offset="0" stop-color="#056766"/><stop offset="0.16" stop-color="#0c6d6d"/><stop offset="0.4" stop-color="#1e7f80"/><stop offset="0.68" stop-color="#3d9b9f"/><stop offset="1" stop-color="#67c2ca"/><stop offset="1" stop-color="#68c3cb"/></linearGradient><linearGradient id="linear-gradient-2" x1="168.55" y1="152.53" x2="231.45" y2="152.53" xlink:href="#linear-gradient"/><linearGradient id="linear-gradient-3" x1="126.21" y1="254.65" x2="273.79" y2="254.65" gradientUnits="userSpaceOnUse"><stop offset="0" stop-color="#056766"/><stop offset="0.16" stop-color="#0c6d6d"/><stop offset="0.4" stop-color="#1e7f80"/><stop offset="0.68" stop-color="#3d9b9f"/><stop offset="1" stop-color="#67c2ca"/><stop offset="1" stop-color="#68c3cb"/></linearGradient></defs><title>اللغة</title><path d="M199.54,103.14h0v0a1.83,1.83,0,0,0-1.8,1.84,1.82,1.82,0,0,0,3.63,0h0A1.79,1.79,0,0,0,199.54,103.14ZM193,105.51a.18.18,0,0,0,0-.06,1.83,1.83,0,0,0-2.07-1.49v0a1.82,1.82,0,1,0,2.09,1.51Zm-8,1.86s0,0,0,0a1.82,1.82,0,0,0-2.31-1.08l0,0a1.82,1.82,0,1,0,2.35,1.05Zm-7.63,3.31a1.83,1.83,0,0,0-2.47-.69l0,.05a1.81,1.81,0,1,0,2.49.64Zm-6.93,4.57a1.8,1.8,0,0,0-2.53-.28l-.06,0,0,0a1.82,1.82,0,0,0-.18,2.56,1.81,1.81,0,0,0,2.75-2.36ZM164.25,121a1.72,1.72,0,1,0,.38,2.54A1.82,1.82,0,0,0,164.25,121Zm-4.82,6.65a1.81,1.81,0,0,0-2.45.6l0,.08a1.81,1.81,0,1,0,2.47-.68ZM155.7,135a1.56,1.56,0,0,0-.6-.11,1.83,1.83,0,0,0-1.69,1.16l0,.06A1.82,1.82,0,1,0,155.7,135Zm-2.35,7.91h0a1.82,1.82,0,0,0-2.06,1.51h0a1.82,1.82,0,0,0,1.5,2.08,1.81,1.81,0,0,0,.6-3.58Zm-1,8.24a1.81,1.81,0,0,0-1.77,1.83h0a1.82,1.82,0,1,0,1.79-1.84ZM155,161a1.83,1.83,0,0,0-2.09-1.5h0a1.82,1.82,0,0,0-1.43,2.07h0A1.82,1.82,0,0,0,155,161Zm2.13,7.6a1.84,1.84,0,0,0-2.35-1.06h0a1.83,1.83,0,0,0-1,2.33h0a1.82,1.82,0,0,0,3.41-1.29Zm3.44,7.21a1.8,1.8,0,0,0-2.48-.65h0a1.81,1.81,0,1,0,2.49.64Zm4.68,6.48a1.82,1.82,0,0,0-2.79,2.35h0a1.82,1.82,0,1,0,2.76-2.36Zm5.7,5.59a1.82,1.82,0,0,0-2.55.25h0a1.82,1.82,0,0,0,.23,2.54h0a1.82,1.82,0,1,0,2.32-2.8Zm6.58,4.51a1.81,1.81,0,0,0-2.47.69h0a1.84,1.84,0,0,0,.66,2.47h0a1.82,1.82,0,0,0,1.8-3.16Zm7.26,3.29a1.84,1.84,0,0,0-2.33,1.11,1.86,1.86,0,0,0-.1.61,1.81,1.81,0,0,0,1.19,1.7h0a1.82,1.82,0,0,0,1.21-3.43Zm7.69,2a1.82,1.82,0,0,0-2.1,1.49h0a1.85,1.85,0,0,0,1.5,2.08,1.81,1.81,0,0,0,.6-3.58Zm8,.62a1.8,1.8,0,1,0,0,3.59h0v0a1.81,1.81,0,1,0,0-3.62Zm10.09.7a1.82,1.82,0,0,0-2.08-1.5,1.84,1.84,0,0,0-1.51,2.09.07.07,0,0,1,0,0,1.82,1.82,0,0,0,3.58-.64Zm7.86-2.56a1.82,1.82,0,1,0-3.4,1.29h0a1.82,1.82,0,0,0,3.4-1.3Zm7.31-3.91a1.82,1.82,0,1,0-.66,2.55l.06,0,0,0A1.81,1.81,0,0,0,225.71,192.52Zm6.57-5.07a1.81,1.81,0,1,0-.19,2.64l.07-.06-.08,0A1.8,1.8,0,0,0,232.28,187.45Zm5.58-6.15h0a1.81,1.81,0,1,0,.25,2.63l0-.05,0,0A1.82,1.82,0,0,0,237.86,181.3Zm4.43-7a1.81,1.81,0,1,0-1.79,3.15h0a1.81,1.81,0,0,0,2.48-.62.05.05,0,0,0,0,0l0,0A1.82,1.82,0,0,0,242.29,174.28Zm3.16-7.68a1.81,1.81,0,1,0-1.24,3.41s0,0,0,0a1.82,1.82,0,0,0,2.35-1.05v0l0,0A1.81,1.81,0,0,0,245.45,166.6Zm3.22-6a1.81,1.81,0,1,0-3.58-.6,1.82,1.82,0,0,0,1.5,2.09h0a1.82,1.82,0,0,0,2.14-1.4.43.43,0,0,0,0-.12Zm.67-8.58a1.82,1.82,0,0,0-3.63,0,1.83,1.83,0,0,0,3.66,0v0Zm-.8-8.59,0,0a1.81,1.81,0,1,0-1.5,2.08h.05A1.84,1.84,0,0,0,248.54,143.45Zm-2.31-8.29h0a1.81,1.81,0,1,0-1,2.34h0A1.83,1.83,0,0,0,246.23,135.16Zm-3.68-7.73,0,0h-.05a1.82,1.82,0,1,0-.64,2.49h0A1.81,1.81,0,0,0,242.55,127.43Zm-5-7s0,0,0,0h0a1.8,1.8,0,1,0-.2,2.55A1.78,1.78,0,0,0,237.52,120.43Zm-6.16-6.05h0a1.81,1.81,0,1,0,.24,2.55h0A1.8,1.8,0,0,0,231.36,114.38Zm-7.1-4.85,0,0a1.82,1.82,0,0,0-1.8,3.17,1.83,1.83,0,0,0,2.48-.69h0A1.81,1.81,0,0,0,224.26,109.53Zm-7.85-3.59h0a1.82,1.82,0,1,0,1.11,2.33,1.76,1.76,0,0,0,.12-.63A1.85,1.85,0,0,0,216.41,105.94Zm-8.33-2.15a1.82,1.82,0,1,0,1.5,2.1v0A1.83,1.83,0,0,0,208.08,103.79Zm-14-10.42,0,0a2.86,2.86,0,1,0,.53,5.7,2.84,2.84,0,0,0,2.58-3.11v0A2.85,2.85,0,0,0,194.12,93.37Zm-6.63,3.89a2.87,2.87,0,0,0-2.76-2.09,2.63,2.63,0,0,0-.78.11h0a2.86,2.86,0,1,0,3.55,2Zm-9.4,3a2.86,2.86,0,0,0-3.84-1.33h0a2.86,2.86,0,1,0,3.85,1.33Zm-8.73,4.61a0,0,0,0,1,0,0,2.86,2.86,0,0,0-4-.67l0,0a2.88,2.88,0,1,0,4,.66ZM161.55,111a2.87,2.87,0,0,0-4.05,0l-.05,0h0a2.87,2.87,0,1,0,4.06,0Zm-6.64,7.27a2.88,2.88,0,0,0-4,.73l0,0,0,0a2.88,2.88,0,0,0,.77,4,2.87,2.87,0,0,0,3.22-4.74Zm-5.28,8.36a2.86,2.86,0,0,0-3.79,1.41l0,0h0a2.87,2.87,0,1,0,3.79-1.43Zm-3.73,9.13a2.88,2.88,0,0,0-3.5,2,.09.09,0,0,1,0,.05l0,0a2.87,2.87,0,1,0,3.49-2.08Zm-2.05,9.67a2.88,2.88,0,0,0-3.13,2.57s0,.05,0,.07h0a2.87,2.87,0,1,0,3.12-2.63Zm-.41,9.89h0a2.87,2.87,0,1,0,3.13,2.59A2.88,2.88,0,0,0,143.42,155.27ZM148.33,167a2.89,2.89,0,0,0-3.54-2h0a2.85,2.85,0,0,0-2,3.51v0h0a2.88,2.88,0,0,0,5.54-1.54Zm3.28,8.73a2.88,2.88,0,0,0-5.22,2.45s0,0,0,.05h0a2.87,2.87,0,0,0,5.16-2.5Zm4.77,8.07a2.88,2.88,0,0,0-4.69,3.34h0a2.86,2.86,0,0,0,4.65-3.34Zm6.13,7.09a2.89,2.89,0,0,0-4.07,0h0a2.88,2.88,0,1,0,4.08,0Zm7.16,6a2.85,2.85,0,0,0-4,.76,2.89,2.89,0,0,0,.76,4v0a2.87,2.87,0,1,0,3.22-4.74Zm8.19,4.57a2.87,2.87,0,0,0-3.8,1.44h0a2.89,2.89,0,0,0,1.44,3.77v0a2.88,2.88,0,1,0,2.38-5.24Zm8.81,3.12a2.85,2.85,0,1,0-1.39,5.52v0a2.87,2.87,0,0,0,1.4-5.56Zm9.25,1.5a2.86,2.86,0,1,0-.42,5.7v0a2.88,2.88,0,0,0,.43-5.74Zm9.42-.09a2.85,2.85,0,0,0-2.59,3.11v0a2.86,2.86,0,0,0,3.11,2.53v.05a2.87,2.87,0,1,0-.52-5.71Zm12.69.25a2.87,2.87,0,0,0-5.52,1.54h0a2.87,2.87,0,0,0,3.53,1.94v.05A2.88,2.88,0,0,0,218,206.26Zm9.07-4a2.88,2.88,0,1,0-2.6,4.09,2.77,2.77,0,0,0,1.24-.28v0A2.88,2.88,0,0,0,227.1,202.3Zm8.22-5.46a2.87,2.87,0,1,0-.66,4A2.89,2.89,0,0,0,235.32,196.84Zm7.21-6.83a2.87,2.87,0,1,0,0,4.06A2.88,2.88,0,0,0,242.53,190Zm5.8-7.94a2.87,2.87,0,1,0,.75,4A2.86,2.86,0,0,0,248.33,182.07Zm4.41-8.86a2.88,2.88,0,0,0-2.39,5.23h0a2.87,2.87,0,0,0,3.79-1.46v0A2.86,2.86,0,0,0,252.74,173.21Zm2.77-9.45a2.86,2.86,0,1,0,2.08,3.47A2.86,2.86,0,0,0,255.51,163.76Zm1.11-9.82a2.86,2.86,0,1,0,2.65,3.14V157A2.87,2.87,0,0,0,256.62,153.94ZM256,144a2.87,2.87,0,0,0,.53,5.71h0a2.86,2.86,0,0,0,2.55-3.08l0,0A2.86,2.86,0,0,0,256,144Zm1.19-7.53v-.07A2.87,2.87,0,0,0,251.7,138a2.89,2.89,0,0,0,3.54,2h0A2.86,2.86,0,0,0,257.23,136.51Zm-3.66-9.74v0a2.86,2.86,0,1,0-1.34,3.83v0A2.85,2.85,0,0,0,253.57,126.77Zm-5.28-8.94a2.86,2.86,0,1,0-.66,4h0A2.88,2.88,0,0,0,248.29,117.83Zm-6.8-7.84,0,0a2.86,2.86,0,1,0,.05,4.06A2.87,2.87,0,0,0,241.54,110Zm-7.91-6.53-.07,0v0a3.2,3.2,0,1,0,.07.06Zm-9.09-5.11v0a2.87,2.87,0,1,0,1.44,3.8A2.87,2.87,0,0,0,224.49,98.33Zm-9.79-3.43v0a2.87,2.87,0,1,0,2.08,3.49A2.86,2.86,0,0,0,214.7,94.89Zm-10.22-1.69v0a2.87,2.87,0,1,0,2.65,3.11A2.89,2.89,0,0,0,204.48,93.21Zm-12-8.87a4.38,4.38,0,1,0-3.56,5.07A4.4,4.4,0,0,0,192.43,84.36Zm-11.72,2.35a4.38,4.38,0,1,0-2.59,5.62A4.38,4.38,0,0,0,180.71,86.71Zm-11.13,4.36v0a4.38,4.38,0,1,0-1.6,6A4.41,4.41,0,0,0,169.57,91.05Zm-10.21,6.22a4.38,4.38,0,1,0-.54,6.16A4.36,4.36,0,0,0,159.37,97.29Zm-9,7.88,0,0a4.38,4.38,0,1,0,.52,6.22A4.41,4.41,0,0,0,150.35,105.14Zm-7.47,9.34a4.38,4.38,0,1,0,1.6,6A4.41,4.41,0,0,0,142.92,114.51ZM137.2,125v0a4.37,4.37,0,1,0,2.62,5.6A4.38,4.38,0,0,0,137.2,125Zm-3.82,11.32v0a4.39,4.39,0,0,0-5.08,3.53h0a4.38,4.38,0,1,0,5.08-3.56Zm-1.8,11.81h0a4.39,4.39,0,0,0-4.38,4.38h0a4.39,4.39,0,1,0,4.38-4.4Zm5.34,15.51a4.39,4.39,0,0,0-5.06-3.57v0a4.38,4.38,0,1,0,5.06,3.55Zm2.9,10.78a4.39,4.39,0,0,0-5.61-2.62h0a4.37,4.37,0,1,0,5.61,2.61Zm4.7,10.15a4.38,4.38,0,0,0-6-1.61v0s0,0,0,0a4.39,4.39,0,1,0,6,1.62Zm6.41,9.18a4.38,4.38,0,0,0-6.16-.58v0l-.08.06a4.39,4.39,0,1,0,6.24.54Zm7.91,7.85a4.38,4.38,0,0,0-6.18.55v0s0,0,0,0a4.37,4.37,0,0,0,.56,6.15h0a4.38,4.38,0,0,0,5.63-6.71ZM168,208a4.38,4.38,0,0,0-6,1.6v0l0,0a4.39,4.39,0,1,0,6-1.61Zm10.12,4.71a4.39,4.39,0,0,0-5.63,2.62v0a.43.43,0,0,1,0,0,4.39,4.39,0,1,0,5.65-2.64Zm10.77,2.89a4.39,4.39,0,0,0-5.08,3.55v0a4.38,4.38,0,1,0,5.09-3.57Zm11.12,1a4.37,4.37,0,0,0-4.38,4.38v0a4.39,4.39,0,1,0,4.39-4.39Zm16.19,2.56a4.38,4.38,0,1,0-3.55,5.09h0A4.38,4.38,0,0,0,216.19,219.14Zm11.33-3.8a4.38,4.38,0,1,0-2.63,5.61A4.38,4.38,0,0,0,227.52,215.34ZM238,209.61A4.38,4.38,0,0,0,230.4,214l0,0a4.38,4.38,0,0,0,7.58-4.39Zm9.31-7.5a4.38,4.38,0,0,0-6.71,5.62l0,0a4.38,4.38,0,0,0,6.16.53h0A4.38,4.38,0,0,0,247.32,202.11Zm8-8.91a4.38,4.38,0,0,0-5.69,6.66v-.06s0,0,0,.06a4.37,4.37,0,0,0,5.65-6.66Zm6.17-10.26a4.38,4.38,0,1,0,1.59,6A4.38,4.38,0,0,0,261.45,182.94Zm4.32-11.16a4.38,4.38,0,0,0-3,8.23v0h0a4.39,4.39,0,0,0,3-8.26Zm2.36-11.73a4.38,4.38,0,1,0-1.53,8.63,5.14,5.14,0,0,0,.78.07,4.38,4.38,0,0,0,.75-8.7Zm.27-11.92a4.39,4.39,0,0,0,0,8.77h0a4.38,4.38,0,0,0,4.37-4.38v0A4.38,4.38,0,0,0,268.4,148.13Zm3.3-8.26a4.38,4.38,0,1,0-3.56,5.08h0A4.38,4.38,0,0,0,271.7,139.87Zm-3.29-12.25a4.38,4.38,0,1,0-2.62,5.61A4.38,4.38,0,0,0,268.41,127.62Zm-5.36-11.5a4.38,4.38,0,1,0-1.61,6h0a4.37,4.37,0,0,0,1.6-6Zm-7.29-10.45a4.38,4.38,0,1,0-.54,6.23l0,0A4.39,4.39,0,0,0,255.76,105.67Zm-9-8.92a4.38,4.38,0,1,0,.53,6.17h0A4.39,4.39,0,0,0,246.79,96.75Zm-10.4-7.27a4.38,4.38,0,1,0,1.6,6h0A4.39,4.39,0,0,0,236.39,89.48Zm-11.5-5.37a4.38,4.38,0,1,0,2.62,5.61A4.39,4.39,0,0,0,224.89,84.11Zm-12.26-3.29a4.38,4.38,0,1,0,3.56,5.09h0A4.4,4.4,0,0,0,212.63,80.82ZM200,79.72a4.38,4.38,0,1,0,4.38,4.38A4.38,4.38,0,0,0,200,79.72Z" style="fill-rule:evenodd;fill:url(#linear-gradient)"/><path d="M228.62,121.89H208a2.79,2.79,0,0,0-3,3c0,.81,0,1.61,0,2.41,0,.28-.08.32-.33.31a26.42,26.42,0,0,0-7.16.4,27.11,27.11,0,0,0-18.24,12.58.61.61,0,0,1-.6.33h-7.23a2.68,2.68,0,0,0-2.88,2.84v13.93a2.69,2.69,0,0,0,2.75,2.72c1.27,0,2.54,0,3.81,0,.31,0,.43.1.49.4A26.92,26.92,0,0,0,185.3,177a27.39,27.39,0,0,0,38.46-3.81,28,28,0,0,0,2.94-31.35c-.23-.43-.24-.43.26-.43h1.78a2.67,2.67,0,0,0,2.7-2.72c0-4.66,0-9.34,0-14A2.71,2.71,0,0,0,228.62,121.89Zm-27,6.9c.3,0,.39,0,.38.31,0,2,0,3.9,0,5.84s0,3.87,0,5.8c0,.3-.05.4-.38.39a26.07,26.07,0,0,1-9.17-2.08c-.18-.07-.34-.1-.23-.37a21.16,21.16,0,0,1,4.71-7.39A8.86,8.86,0,0,1,201.64,128.79Zm-15.72,6a26.18,26.18,0,0,1,11.13-5.4l.21,0,.11,0a15.47,15.47,0,0,0-2.45,2.32,23.25,23.25,0,0,0-3.71,6.35c-.15.38-.29.35-.59.19a27.88,27.88,0,0,1-4.67-3.07C185.77,135,185.71,134.92,185.92,134.74Zm-14.37,24.45a1.58,1.58,0,0,1-1.79-1.79c0-4.5,0-9,0-13.5a1.69,1.69,0,0,1,1.8-1.8c6.84,0,13.69,0,20.53,0a1.59,1.59,0,0,1,1.71,1.71q0,6.82,0,13.67a1.59,1.59,0,0,1-1.69,1.69h-.8c-.51,0-.71.22-.71.73l.06,3.9v.54l-2.58-2.85c-.59-.65-1.18-1.29-1.75-1.95a1,1,0,0,0-.85-.38Zm14.17,16.55a26.56,26.56,0,0,1,5.08-3.38c.29-.15.29.09.35.23a25.38,25.38,0,0,0,2.47,4.7,16.08,16.08,0,0,0,3.5,3.86.44.44,0,0,1,.08.1C195.66,181.66,188.82,178.38,185.72,175.74Zm16.3,0v5.67c0,.52,0,.51-.54.42a8.63,8.63,0,0,1-4.32-2.27,20.63,20.63,0,0,1-4.95-7.62c-.08-.2,0-.26.15-.33a26.74,26.74,0,0,1,6.44-1.82c.94-.13,1.87-.22,2.82-.27.36,0,.41.1.4.42C202,171.9,202,173.83,202,175.77Zm-.37-7.41a26.15,26.15,0,0,0-9.59,2.1c-.29.12-.41.11-.5-.22-.24-.83-.51-1.66-.76-2.5-.14-.46-.42-.66-.79-.56s-.5.43-.38.89c.24.93.52,1.84.85,2.74.07.21.09.32-.16.45a25.9,25.9,0,0,0-5.35,3.52c-.23.2-.31,0-.43-.09a26.4,26.4,0,0,1-7.47-12.82c-.1-.39-.16-.8-.26-1.19s0-.28.24-.28h8.13a.49.49,0,0,1,.4.18l4.81,5.34c.12.12.23.25.34.37a.65.65,0,0,0,.79.23c.31-.12.37-.38.37-.69q0-2.12-.06-4.23a2.42,2.42,0,0,1,0-1.08c.16-.29.63-.1,1-.17a2.8,2.8,0,0,0,2.18-2.67c0-.5,0-1,0-1.48,0-.2.05-.26.26-.26,2.16,0,4.31,0,6.47,0,.33,0,.28.18.28.37v5.84h0c0,2,0,3.9,0,5.84C202,168.27,202,168.35,201.65,168.36ZM202,154.3c0,.36-.11.44-.45.43-2,0-4.09,0-6.13,0-.35,0-.45-.07-.44-.43,0-3.5,0-7,0-10.49a2.77,2.77,0,0,0-2.13-2.84,3.36,3.36,0,0,0-.84-.06H180.49a26.3,26.3,0,0,1,2.84-3.71c.37-.4.78-.77,1.15-1.18.21-.24.36-.24.6,0a25.93,25.93,0,0,0,4.13,2.85,27.25,27.25,0,0,0,12.36,3.48c.36,0,.46.1.46.47C202,146.63,202,150.46,202,154.3Zm1.19-11.53c0-.36.12-.44.45-.45.64,0,1.27-.06,1.9-.12.47,0,.68-.32.63-.73s-.31-.51-.72-.48c-.64,0-1.27.08-1.9.14-.25,0-.36,0-.35-.31,0-3.94,0-7.87,0-11.81,0-.22.06-.3.29-.28a10,10,0,0,0,1.09.07c.33,0,.39.13.38.43,0,3.08,0,6.15,0,9.23a2.78,2.78,0,0,0,1.67,2.71,2.18,2.18,0,0,0,1.15.22c.33,0,.39.1.39.4,0,1.64-.05,3.27-.08,4.91,0,.34,0,.68.37.82s.62-.05.87-.32c1.55-1.73,3.1-3.44,4.66-5.15a1.78,1.78,0,0,1,.14-.14c.35,1.15.63,2.28.86,3.42a50.75,50.75,0,0,1,1,8.94c0,.37-.07.47-.45.47-4,0-7.93,0-11.89,0-.32,0-.43-.06-.43-.41Q203.25,148.55,203.22,142.77Zm.44,13.16c2,0,4,0,6,0s3.95,0,5.93,0c.39,0,.45.11.44.47a46.44,46.44,0,0,1-2.29,13.83c-.1.29-.18.36-.49.23a26.67,26.67,0,0,0-9.6-2.11c-.33,0-.38-.12-.38-.42,0-3.86,0-7.73,0-11.59C203.22,156,203.34,155.93,203.66,155.93Zm.05,25.94c-.4.08-.49,0-.49-.41,0-1.92,0-3.84,0-5.76s0-3.83,0-5.75c0-.31.05-.41.38-.4a26.18,26.18,0,0,1,9.22,2.09c.18.08.31.12.2.38a20.65,20.65,0,0,1-4.89,7.52A9,9,0,0,1,203.71,181.87ZM219.22,176A25.69,25.69,0,0,1,208,181.37s-.1,0-.11,0,0-.05.05-.07a20.59,20.59,0,0,0,6.1-8.67c.12-.29.21-.36.52-.2a28,28,0,0,1,4.65,3C219.46,175.67,219.48,175.77,219.22,176ZM229,156.38a26.8,26.8,0,0,1-8.25,18.3c-.21.2-.32.2-.54,0a26,26,0,0,0-5.21-3.42c-.24-.13-.31-.22-.22-.5A44,44,0,0,0,217,160.39c.13-1.36.23-2.73.23-4.1,0-.31.13-.36.4-.36h5.5c1.82,0,3.64,0,5.46,0C228.92,155.93,229,156,229,156.38Zm0-2c0,.29-.06.35-.34.35h-11c-.31,0-.42-.06-.43-.4a47.68,47.68,0,0,0-1.82-12.57c-.09-.29,0-.38.28-.38h9.09a.49.49,0,0,1,.5.29A26.84,26.84,0,0,1,229,154.38Zm-.56-14.19c-4.59,0-9.17,0-13.75,0a1.25,1.25,0,0,0-1,.46c-1.38,1.56-2.79,3.1-4.22,4.69V142c0-.4,0-.79,0-1.19a.62.62,0,0,0-.66-.67h-.84a1.58,1.58,0,0,1-1.71-1.72V125a1.65,1.65,0,0,1,1.85-1.85H228.4a2.05,2.05,0,0,1,1,.16,1.48,1.48,0,0,1,.84,1.26,5.76,5.76,0,0,1,0,.59c0,4.41,0,8.83,0,13.25A1.7,1.7,0,0,1,228.4,140.19ZM208,181.37s-.1,0-.11,0,0-.05.05-.07ZM185.83,156c-.86-2.88-1.73-5.76-2.59-8.64l-.84-2.75a.61.61,0,0,0-.66-.47.63.63,0,0,0-.61.49l-3.45,11.46c-.15.49,0,.86.38,1s.72-.07.88-.6c.39-1.32.79-2.64,1.19-4,.12-.39.13-.89.4-1.13s.8,0,1.15-.08.69,0,1,0a.37.37,0,0,1,.44.32c.31,1.06.63,2.1.95,3.16.18.61.36,1.24.55,1.85a.63.63,0,0,0,.75.47.61.61,0,0,0,.55-.64A1.2,1.2,0,0,0,185.83,156ZM181.15,150c-.21,0-.22-.08-.17-.25.26-.83.51-1.66.79-2.6.31,1,.58,1.92.85,2.85Zm40.3-19.61c-.21,0-.21-.14-.21-.31a.51.51,0,0,0-.45-.53.45.45,0,0,0-.57.26c-.11.46-.42.43-.76.41h-.63c-.34,0-.68,0-1,0-.17,0-.23,0-.21-.2a2.38,2.38,0,0,0,0-.38c0-.3,0-.41.39-.41a14,14,0,0,0,3.35-.34c.44-.09.65-.35.58-.69s-.39-.51-.83-.4a17.14,17.14,0,0,1-3.11.36c-.29,0-.4,0-.38-.36,0-.53,0-1.07,0-1.61s-.2-.64-.56-.63-.54.21-.54.65,0,1.07,0,1.61c0,.25-.07.32-.31.29a6,6,0,0,0-.84-.07c-.33,0-.59.12-.62.49s.16.57.54.62l.46,0c.77.06.76.06.77.85,0,.29-.09.38-.36.44a5.72,5.72,0,0,0-2.1.84,2.38,2.38,0,0,0-.92,3.26,2.75,2.75,0,0,0,3.06,1.14c.14,0,.27-.14.35.11a.51.51,0,0,0,.65.34.51.51,0,0,0,.41-.6,1.18,1.18,0,0,1,.57-1.13,11,11,0,0,0,2.51-2.89c.06-.1.09-.21.24-.19,1.16.18,1.93.92,1.6,2.08a3,3,0,0,1-1.44,1.8,11.76,11.76,0,0,1-3.77,1.32c-.42.09-.62.34-.54.69a.58.58,0,0,0,.77.39c.58-.13,1.16-.24,1.73-.41a7.87,7.87,0,0,0,3.32-1.77C224.4,133.66,223.93,130.94,221.45,130.37Zm-5.3,4.21a1.7,1.7,0,0,1-1.65-.11,1.15,1.15,0,0,1-.19-1.9,4.23,4.23,0,0,1,2-1c.22-.06.19.08.19.21V133c0,.36,0,.71,0,1.06A.43.43,0,0,1,216.15,134.58Zm1.45-1.1c0-.67,0-1.23,0-1.8,0-.2,0-.29.28-.3a10.53,10.53,0,0,1,1.61,0A9.29,9.29,0,0,1,217.6,133.48Z" style="fill:url(#linear-gradient-2)"/><path d="M136.17,243.14l-5-3.78,3.43-3.78,5,3.78ZM148,239.36l-5-3.78-3.45,3.78,5,3.78Zm48.22,5.3-5-3.75-3.45,3.81,5,3.75ZM255.09,236l4.85-2v28.82q0,7.05-3.41,10.78c-1.85.92-4.57,1.39-8.16,1.39a12.55,12.55,0,0,1-4.82-.77,6.46,6.46,0,0,1-3-2.61,6.37,6.37,0,0,1-3.3,2.61,17.38,17.38,0,0,1-5.85.77h-26.5q-8.76,0-12.79-3.38a16,16,0,0,1-5.66,2.59,36.25,36.25,0,0,1-8.19.79h-28q-9.31,0-10.51-8.88h-.1L137,269a9.78,9.78,0,0,1-8.16-1.69,5.87,5.87,0,0,1-2.62-4.62,33.17,33.17,0,0,1,2.53-5.85l10.78-5.31V248l4.79-1.93v14.53q0,4.25,1.5,5.82t5.63,1.63h26.45q7.59,0,10-.81l-6.94-6.94,1.79-5.5a40.94,40.94,0,0,1,10-1.25,14.84,14.84,0,0,1,7.41,1.52,4.73,4.73,0,0,1,2.58,4.25c0,1.9-1.4,4.08-4.22,6.53l-1.82,1.47q2,.74,9.14.73h26.83a5.15,5.15,0,0,0,4.17-1.52q1.31-1.6,1.3-5.44V236l4.82-2v27.11q0,3.94,1.5,5.44c1,1,2.72,1.52,5.22,1.52a18.08,18.08,0,0,0,5.47-.68Zm-115.57,20-9.25,4.32a7.21,7.21,0,0,0,3.86,2.72,16.69,16.69,0,0,0,5.39.47Zm58,4.65q0-1.87-5.68-1.88a30.91,30.91,0,0,0-5.94.52v.11l6.62,6.23,1.47-1.06C196.3,262.93,197.48,261.63,197.48,260.72ZM268.94,236v39.24h1.64l3.21-7V234Z" style="fill:url(#linear-gradient-3)"/></svg>