<svg id="Layer_1" data-name="Layer 1" xmlns="http://www.w3.org/2000/svg" xmlns:xlink="http://www.w3.org/1999/xlink" viewBox="0 0 400 355.72"><defs><linearGradient id="linear-gradient" x1="105.44" y1="177.86" x2="294.56" y2="177.86" gradientUnits="userSpaceOnUse"><stop offset="0" stop-color="#056766"/><stop offset="0.16" stop-color="#0c6d6d"/><stop offset="0.4" stop-color="#1e7f80"/><stop offset="0.68" stop-color="#3d9b9f"/><stop offset="1" stop-color="#67c2ca"/><stop offset="1" stop-color="#68c3cb"/></linearGradient></defs><title>الاشعارات</title><path d="M204.22,76.78A4.22,4.22,0,1,1,200,72.55,4.22,4.22,0,0,1,204.22,76.78Zm11.39,1.73a4.22,4.22,0,1,1-3.43-4.89A4.23,4.23,0,0,1,215.61,78.51Zm10.91,3.69A4.22,4.22,0,1,1,224,76.78,4.22,4.22,0,0,1,226.52,82.2Zm10.1,5.52A4.22,4.22,0,1,1,235.08,82,4.23,4.23,0,0,1,236.62,87.72Zm9,7.2a4.22,4.22,0,1,1-.52-6A4.23,4.23,0,0,1,245.61,94.92Zm7.61,8.64a4.22,4.22,0,1,1,.52-6A4.22,4.22,0,0,1,253.22,103.56Zm6,9.84a4.22,4.22,0,1,1,1.55-5.77A4.23,4.23,0,0,1,259.21,113.4Zm4.19,10.73a4.22,4.22,0,1,1,2.52-5.42A4.23,4.23,0,0,1,263.4,124.13Zm2.26,11.29a4.22,4.22,0,1,1,3.43-4.89A4.23,4.23,0,0,1,265.66,135.42Zm.27,11.51a4.22,4.22,0,1,1,4.22-4.22A4.22,4.22,0,0,1,265.93,146.93Zm-1.73,11.38a4.22,4.22,0,1,1,4.89-3.42A4.22,4.22,0,0,1,264.2,158.31Zm-3.69,10.92a4.22,4.22,0,1,1,5.41-2.53A4.23,4.23,0,0,1,260.51,169.23ZM255,179.33a4.22,4.22,0,1,1,5.77-1.55A4.23,4.23,0,0,1,255,179.33Zm-7.2,9a4.22,4.22,0,1,1,6-.52A4.23,4.23,0,0,1,247.79,188.32Zm-8.64,7.61a4.22,4.22,0,1,1,5.94.52A4.22,4.22,0,0,1,239.15,195.93Zm-9.84,6a4.22,4.22,0,1,1,5.77,1.54A4.23,4.23,0,0,1,229.31,201.92Zm-10.73,4.19a4.22,4.22,0,1,1,5.41,2.52A4.21,4.21,0,0,1,218.58,206.11Zm-11.29,2.26a4.22,4.22,0,1,1,4.89,3.43A4.22,4.22,0,0,1,207.29,208.37Zm-11.51.27a4.22,4.22,0,1,1,4.22,4.22A4.22,4.22,0,0,1,195.78,208.64Zm-11.39-1.74a4.22,4.22,0,1,1,3.43,4.9A4.23,4.23,0,0,1,184.39,206.9Zm-10.91-3.68a4.22,4.22,0,1,1,2.53,5.41A4.22,4.22,0,0,1,173.48,203.22Zm-10.1-5.52a4.22,4.22,0,1,1,1.54,5.76A4.22,4.22,0,0,1,163.38,197.7Zm-9-7.2a4.22,4.22,0,1,1,.52,5.95A4.21,4.21,0,0,1,154.39,190.5Zm-7.61-8.65a4.22,4.22,0,1,1-.52,6A4.23,4.23,0,0,1,146.78,181.85Zm-6-9.83a4.22,4.22,0,1,1-1.55,5.76A4.22,4.22,0,0,1,140.79,172Zm-4.19-10.73a4.22,4.22,0,1,1-2.52,5.41A4.22,4.22,0,0,1,136.6,161.29ZM134.34,150a4.22,4.22,0,1,1-3.43,4.89A4.22,4.22,0,0,1,134.34,150Zm-.27-11.51a4.22,4.22,0,1,1-4.22,4.22A4.22,4.22,0,0,1,134.07,138.49Zm1.73-11.39a4.22,4.22,0,1,1-4.89,3.43A4.23,4.23,0,0,1,135.8,127.1Zm3.69-10.91a4.22,4.22,0,1,1-5.41,2.52A4.22,4.22,0,0,1,139.49,116.19Zm5.52-10.1a4.22,4.22,0,1,1-5.77,1.54A4.22,4.22,0,0,1,145,106.09Zm7.2-9a4.22,4.22,0,1,1-6,.52A4.23,4.23,0,0,1,152.21,97.09Zm8.64-7.6a4.22,4.22,0,1,1-5.94-.52A4.22,4.22,0,0,1,160.85,89.49Zm9.84-6A4.22,4.22,0,1,1,164.92,82,4.23,4.23,0,0,1,170.69,83.5Zm10.73-4.19A4.22,4.22,0,1,1,176,76.78,4.22,4.22,0,0,1,181.42,79.31ZM192.71,77a4.22,4.22,0,1,1-4.89-3.42A4.24,4.24,0,0,1,192.71,77Zm11.62,8.54a2.76,2.76,0,1,0,2.55,3A2.77,2.77,0,0,0,204.33,85.58Zm9.85,1.62a2.76,2.76,0,1,0,2,3.36A2.76,2.76,0,0,0,214.18,87.2Zm9.43,3.3A2.77,2.77,0,1,0,225,94.16,2.77,2.77,0,0,0,223.61,90.5Zm8.7,4.89a2.76,2.76,0,1,0,.73,3.85A2.77,2.77,0,0,0,232.31,95.39Zm7.73,6.33a2.77,2.77,0,1,0,.05,3.91A2.77,2.77,0,0,0,240,101.72Zm6.51,7.58a2.76,2.76,0,1,0-.64,3.86A2.77,2.77,0,0,0,246.55,109.3Zm5.09,8.59a2.76,2.76,0,1,0-1.29,3.69A2.76,2.76,0,0,0,251.64,117.89Zm3.53,9.34a2.77,2.77,0,1,0-1.92,3.41A2.78,2.78,0,0,0,255.17,127.23Zm1.85,9.82a2.76,2.76,0,1,0-2.48,3A2.77,2.77,0,0,0,257,137.05Zm.11,10a2.76,2.76,0,1,0-3,2.54A2.76,2.76,0,0,0,257.13,147Zm-1.62,9.85a2.76,2.76,0,1,0-3.36,2A2.76,2.76,0,0,0,255.51,156.89Zm-3.3,9.43a2.77,2.77,0,1,0-3.66,1.38A2.76,2.76,0,0,0,252.21,166.32Zm-4.9,8.7a2.76,2.76,0,1,0-3.84.73A2.76,2.76,0,0,0,247.31,175ZM241,182.75a2.76,2.76,0,1,0-3.91,0A2.76,2.76,0,0,0,241,182.75Zm-7.57,6.51a2.77,2.77,0,1,0-3.86-.64A2.77,2.77,0,0,0,233.41,189.26Zm-8.59,5.09a2.76,2.76,0,1,0-3.69-1.29A2.77,2.77,0,0,0,224.82,194.35Zm-9.35,3.52a2.76,2.76,0,1,0-3.4-1.91A2.76,2.76,0,0,0,215.47,197.87Zm-9.81,1.85a2.76,2.76,0,1,0-3-2.47A2.76,2.76,0,0,0,205.66,199.72Zm-10,.12a2.76,2.76,0,1,0-2.55-3A2.77,2.77,0,0,0,195.67,199.84Zm-9.85-1.62a2.76,2.76,0,1,0-2-3.36A2.76,2.76,0,0,0,185.82,198.22Zm-9.43-3.31a2.76,2.76,0,1,0-1.38-3.65A2.76,2.76,0,0,0,176.39,194.91Zm-8.7-4.89a2.76,2.76,0,1,0-.73-3.84A2.76,2.76,0,0,0,167.69,190ZM160,183.69a2.76,2.76,0,1,0-.05-3.91A2.76,2.76,0,0,0,160,183.69Zm-6.51-7.57a2.77,2.77,0,1,0,.64-3.86A2.77,2.77,0,0,0,153.45,176.12Zm-5.09-8.59a2.76,2.76,0,1,0,1.29-3.69A2.77,2.77,0,0,0,148.36,167.53Zm-3.53-9.35a2.77,2.77,0,1,0,1.92-3.41A2.77,2.77,0,0,0,144.83,158.18ZM143,148.37a2.76,2.76,0,1,0,2.48-3A2.77,2.77,0,0,0,143,148.37Zm-.11-10a2.76,2.76,0,1,0,3-2.55A2.75,2.75,0,0,0,142.87,138.38Zm1.62-9.86a2.76,2.76,0,1,0,3.36-2A2.77,2.77,0,0,0,144.49,128.52Zm3.3-9.42a2.77,2.77,0,1,0,3.66-1.38A2.77,2.77,0,0,0,147.79,119.1Zm4.9-8.71a2.76,2.76,0,1,0,3.84-.72A2.76,2.76,0,0,0,152.69,110.39Zm6.33-7.72a2.76,2.76,0,1,0,3.91,0A2.76,2.76,0,0,0,159,102.67Zm7.57-6.51a2.77,2.77,0,1,0,3.86.63A2.77,2.77,0,0,0,166.59,96.16Zm8.59-5.09a2.76,2.76,0,1,0,3.69,1.29A2.76,2.76,0,0,0,175.18,91.07Zm9.35-3.53a2.76,2.76,0,1,0,3.4,1.92A2.77,2.77,0,0,0,184.53,87.54Zm9.81-1.85a2.76,2.76,0,1,0,3,2.48A2.77,2.77,0,0,0,194.34,85.69ZM207.8,95.75a1.75,1.75,0,0,0-2,1.44,1.75,1.75,0,0,0,3.45.58A1.76,1.76,0,0,0,207.8,95.75Zm8,2.07a1.75,1.75,0,1,0,1.07,2.23A1.75,1.75,0,0,0,215.83,97.82Zm7.56,3.43a1.75,1.75,0,1,0,.66,2.39A1.77,1.77,0,0,0,223.39,101.25Zm6.84,4.69a1.75,1.75,0,1,0,.24,2.47A1.75,1.75,0,0,0,230.23,105.94Zm5.92,5.81a1.75,1.75,0,1,0-.19,2.47A1.74,1.74,0,0,0,236.15,111.75ZM241,118.5a1.75,1.75,0,1,0-.62,2.4A1.75,1.75,0,0,0,241,118.5Zm3.58,7.48a1.75,1.75,0,1,0-1,2.26A1.75,1.75,0,0,0,244.56,126Zm2.23,8a1.75,1.75,0,1,0-1.4,2A1.75,1.75,0,0,0,246.79,134Zm.8,8.25a1.75,1.75,0,1,0-1.73,1.77A1.75,1.75,0,0,0,247.59,142.23Zm-.64,8.28a1.75,1.75,0,1,0-2,1.43A1.75,1.75,0,0,0,247,150.51Zm-2.06,8a1.75,1.75,0,1,0-2.23,1.07A1.75,1.75,0,0,0,244.89,158.54Zm-3.44,7.55a1.74,1.74,0,1,0-2.38.67A1.74,1.74,0,0,0,241.45,166.09Zm-4.69,6.85a1.75,1.75,0,1,0-2.7-2.22,1.75,1.75,0,1,0,2.7,2.22Zm-5.8,5.92a1.75,1.75,0,1,0-2.47-.19A1.74,1.74,0,0,0,231,178.86Zm-6.75,4.83a1.75,1.75,0,1,0-2.4-.62A1.75,1.75,0,0,0,224.21,183.69Zm-7.49,3.58a1.75,1.75,0,1,0-2.25-1A1.75,1.75,0,0,0,216.72,187.27Zm-8,2.23a1.75,1.75,0,1,0-2-1.4A1.75,1.75,0,0,0,208.73,189.5Zm-8.26.8a1.75,1.75,0,1,0-1.76-1.73A1.74,1.74,0,0,0,200.47,190.3Zm-8.27-.64a1.75,1.75,0,1,0-1.44-2A1.76,1.76,0,0,0,192.2,189.66Zm-8-2.07a1.74,1.74,0,1,0-1.07-2.23A1.74,1.74,0,0,0,184.17,187.59Zm-7.56-3.43a1.75,1.75,0,1,0-.66-2.38A1.75,1.75,0,0,0,176.61,184.16Zm-6.84-4.69a1.75,1.75,0,1,0-.24-2.46A1.74,1.74,0,0,0,169.77,179.47Zm-5.92-5.81a1.74,1.74,0,1,0,.19-2.46A1.73,1.73,0,0,0,163.85,173.66ZM159,166.92a1.75,1.75,0,1,0,.62-2.4A1.74,1.74,0,0,0,159,166.92Zm-3.58-7.49a1.75,1.75,0,1,0,1-2.25A1.74,1.74,0,0,0,155.44,159.43Zm-2.23-8a1.75,1.75,0,1,0,1.4-2A1.76,1.76,0,0,0,153.21,151.44Zm-.8-8.26a1.75,1.75,0,1,0,1.73-1.76A1.74,1.74,0,0,0,152.41,143.18Zm.64-8.27a1.75,1.75,0,1,0,2-1.44A1.74,1.74,0,0,0,153.05,134.91Zm2.06-8a1.75,1.75,0,1,0,3.3,1.17,1.75,1.75,0,0,0-3.3-1.17Zm3.44-7.55a1.75,1.75,0,1,0,2.38-.66A1.74,1.74,0,0,0,158.55,119.32Zm4.69-6.84a1.74,1.74,0,0,0,.24,2.46,1.75,1.75,0,1,0,2.22-2.7A1.74,1.74,0,0,0,163.24,112.48Zm5.8-5.93a1.75,1.75,0,1,0,2.47.19A1.76,1.76,0,0,0,169,106.55Zm6.75-4.82a1.75,1.75,0,1,0,2.4.61A1.74,1.74,0,0,0,175.79,101.73Zm7.49-3.58a1.75,1.75,0,1,0,2.25,1A1.74,1.74,0,0,0,183.28,98.15Zm8-2.23a1.75,1.75,0,1,0,2,1.4A1.75,1.75,0,0,0,191.27,95.92Zm8.26-.81a1.75,1.75,0,1,0,1.76,1.73A1.75,1.75,0,0,0,199.53,95.11Zm21.81,54.4c-3.3,0-3.9-2.67-3.9-6V132.19a17.44,17.44,0,0,0-11.92-16.54,5.59,5.59,0,0,0-5.52-4.74h0a5.59,5.59,0,0,0-5.52,4.74,17.44,17.44,0,0,0-11.92,16.54v11.35c0,3.3-.6,6-3.9,6a5.25,5.25,0,0,0-5.29,5,5.17,5.17,0,0,0,5.17,5.36h42.92a5.17,5.17,0,0,0,5.17-5.36A5.25,5.25,0,0,0,221.34,149.51ZM192.81,168a6.54,6.54,0,0,0,6.55,6.54h1.28a6.54,6.54,0,0,0,6.55-6.54v-3.74H192.81Zm-7.92-53.61-1-1.56c-.4.24-9.62,6.09-9.62,20.06h1.83C176.14,119.89,184.53,114.57,184.89,114.35Zm-59.79,129-4.61-3.48-3.16,3.48,4.64,3.48Zm7.76,0-4.58-3.48-3.18,3.48,4.63,3.48Zm5.76,6.54A47.21,47.21,0,0,1,141.43,260a106.39,106.39,0,0,1-20.19,1.88q-6.36,0-9.11-1.88t-2.73-6.24a23.19,23.19,0,0,1,1-6.38h-2.73a21.31,21.31,0,0,0-2.25,9.29q0,5.93,3.71,8.79t11.44,2.85a87.19,87.19,0,0,0,22.89-2.83,13.21,13.21,0,0,0,1.83-7.44,31.64,31.64,0,0,0-2.53-11.84Zm17.86-19.69L152,232.06v36.11h1.5l3-6.44Zm15.85,20.49-4.13,3.63A39.83,39.83,0,0,1,173,264.84,12.18,12.18,0,0,1,168.2,271a14.45,14.45,0,0,1-8.39,2.53,29.72,29.72,0,0,1-3.86-.28V275l8.19,4.16q4.86,0,8.74-5a16.3,16.3,0,0,0,3.71-10.2,21.48,21.48,0,0,0-1.11-6.21A30.64,30.64,0,0,0,172.33,250.69Zm74.88-5.89-4.54-3.43-3.13,3.43,4.56,3.43Zm-7.67,0L235,241.37l-3.1,3.43,4.56,3.43Zm2.83-6.41L237.81,235l-3.1,3.43,4.56,3.43Zm6,14.58a35.4,35.4,0,0,1,1.68,8.81c-.26,0-.6.07-1,.1a3.64,3.64,0,0,1-.48,0H248q-3.53,0-4.83-1.31t-1.08-4.38l.15-2-2.88.57-.4,2.51a6.11,6.11,0,0,1-1.58,3.6,3.9,3.9,0,0,1-2.88,1q-4,0-3.58-4.83l.3-2.83-2.85.57-.35,1.66c-.44,2.12-1.1,3.5-2,4.15s-2.37,1-4.53,1h-.9c-4.37,0-7.18-.23-8.41-.68l1.67-1.35q3.88-3.39,3.89-6a4.36,4.36,0,0,0-2.38-3.91,13.53,13.53,0,0,0-6.82-1.4,37.33,37.33,0,0,0-9.16,1.15l-1.65,5.06,6.38,6.38c-1.47.5-4.53.76-9.19.76h-.55c-2.62,0-4.4-.46-5.33-1.36s-1.36-2.55-1.36-5v-25l-4.45,1.86v25.19c0,3.67.82,6.37,2.48,8.11s4.14,2.56,7.51,2.56h2a33.19,33.19,0,0,0,7.54-.73,14.54,14.54,0,0,0,5.21-2.38q3.7,3.1,11.77,3.11h.6a15.84,15.84,0,0,0,4.71-.55,6.5,6.5,0,0,0,3-2.13,6.54,6.54,0,0,0,5.78,2.68,7.08,7.08,0,0,0,6-2.68c1.43,1.78,4.08,2.68,7.94,2.68a13.36,13.36,0,0,0,3.1-.3q2.92-3.06,2.93-8.77a29.71,29.71,0,0,0-1.4-8.46Zm-38.64,5.4-1.36,1-6.08-5.73v-.1a28.52,28.52,0,0,1,5.46-.48q5.23,0,5.23,1.73C213,255.6,211.89,256.81,209.72,258.37Zm71.74-20V230.2L277,232.06v6.31q0,7.15-1.45,11.06a105.87,105.87,0,0,0-15.5-16l-1,5.71a90.51,90.51,0,0,1,14.34,14.37q-2.79,3.92-10.29,8.87l-.72,5.56h18.28a10.82,10.82,0,0,0,1.15-4.79q0-4.08-3.68-10Q281.47,247.74,281.46,238.34Zm-2.88,24H268.09a39.21,39.21,0,0,0,7.51-6A19.13,19.13,0,0,1,278.58,262.36Zm-13.27,15.87a3.62,3.62,0,0,1-2.65-1.55,3.84,3.84,0,0,1,3.3-1.33,8.69,8.69,0,0,1,2.26.28l.75-3.13a6.67,6.67,0,0,0-2.63-.48,6,6,0,0,0-4,1.43,4.26,4.26,0,0,0-1.71,3.36,3.29,3.29,0,0,0,1.48,2.9v.05l-1.95.5-.53,2.91,10.19-2.43.58-3-.68.2A10.16,10.16,0,0,1,265.31,278.23Zm24.79-46.17v36.11h1.51l2.95-6.44V230.2Z" style="fill-rule:evenodd;fill:url(#linear-gradient)"/></svg>