<svg xmlns="http://www.w3.org/2000/svg" xmlns:xlink="http://www.w3.org/1999/xlink" viewBox="0 0 400 355.72"><defs><linearGradient id="linear-gradient" x1="122.97" y1="177.86" x2="277.03" y2="177.86" gradientUnits="userSpaceOnUse"><stop offset="0" stop-color="#056766"/><stop offset="0.16" stop-color="#0c6d6d"/><stop offset="0.4" stop-color="#1e7f80"/><stop offset="0.68" stop-color="#3d9b9f"/><stop offset="1" stop-color="#67c2ca"/><stop offset="1" stop-color="#68c3cb"/></linearGradient></defs><title>الرئيسية</title><g id="الايقونات_المعتمدة" data-name="الايقونات المعتمدة"><path d="M180.94,113.63h16.5l-.73,1-15.4,18.21-.86-.27V113.63Zm22.84,61.59H223.1V149.35h7.69L200,114.87l-30.78,34.48h7.71v25.87h26.86Zm.44-96.73A4.22,4.22,0,1,1,200,74.27,4.22,4.22,0,0,1,204.22,78.49Zm11.39,1.74a4.22,4.22,0,1,1-3.43-4.9A4.22,4.22,0,0,1,215.61,80.23Zm10.91,3.68A4.22,4.22,0,1,1,224,78.5,4.23,4.23,0,0,1,226.52,83.91Zm10.1,5.53a4.22,4.22,0,1,1-1.54-5.77A4.22,4.22,0,0,1,236.62,89.44Zm9,7.19a4.22,4.22,0,1,1-.52-5.95A4.21,4.21,0,0,1,245.61,96.63Zm7.61,8.65a4.22,4.22,0,1,1,.52-6A4.23,4.23,0,0,1,253.22,105.28Zm6,9.83a4.22,4.22,0,1,1,1.55-5.76A4.22,4.22,0,0,1,259.21,115.11Zm4.19,10.73a4.22,4.22,0,1,1,2.52-5.41A4.22,4.22,0,0,1,263.4,125.84Zm2.26,11.29a4.22,4.22,0,1,1,3.43-4.89A4.22,4.22,0,0,1,265.66,137.13Zm.27,11.52a4.23,4.23,0,1,1,4.22-4.23A4.22,4.22,0,0,1,265.93,148.65ZM264.2,160a4.22,4.22,0,1,1,4.89-3.42A4.22,4.22,0,0,1,264.2,160Zm-3.69,10.91a4.22,4.22,0,1,1,5.41-2.52A4.22,4.22,0,0,1,260.51,170.94ZM255,181.05a4.22,4.22,0,1,1,5.77-1.55A4.23,4.23,0,0,1,255,181.05Zm-7.2,9a4.22,4.22,0,1,1,6-.52A4.23,4.23,0,0,1,247.79,190Zm-8.64,7.6a4.22,4.22,0,1,1,5.94.52A4.21,4.21,0,0,1,239.15,197.64Zm-9.84,6a4.22,4.22,0,1,1,5.77,1.55A4.21,4.21,0,0,1,229.31,203.63Zm-10.73,4.19a4.22,4.22,0,1,1,5.41,2.53A4.22,4.22,0,0,1,218.58,207.82Zm-11.29,2.27a4.22,4.22,0,1,1,4.89,3.42A4.22,4.22,0,0,1,207.29,210.09Zm-11.51.27a4.22,4.22,0,1,1,4.22,4.22A4.22,4.22,0,0,1,195.78,210.36Zm-11.39-1.74a4.22,4.22,0,1,1,3.43,4.89A4.22,4.22,0,0,1,184.39,208.62Zm-10.91-3.69a4.22,4.22,0,1,1,2.53,5.42A4.22,4.22,0,0,1,173.48,204.93Zm-10.1-5.52a4.22,4.22,0,1,1,1.54,5.77A4.22,4.22,0,0,1,163.38,199.41Zm-9-7.19a4.22,4.22,0,1,1,.52,5.94A4.21,4.21,0,0,1,154.39,192.22Zm-7.61-8.65a4.22,4.22,0,1,1-.52,6A4.22,4.22,0,0,1,146.78,183.57Zm-6-9.84a4.22,4.22,0,1,1-1.55,5.77A4.23,4.23,0,0,1,140.79,173.73ZM136.6,163a4.22,4.22,0,1,1-2.52,5.41A4.22,4.22,0,0,1,136.6,163Zm-2.26-11.3a4.22,4.22,0,1,1-3.43,4.9A4.23,4.23,0,0,1,134.34,151.71Zm-.27-11.51a4.23,4.23,0,1,1-4.22,4.22A4.22,4.22,0,0,1,134.07,140.2Zm1.73-11.38a4.22,4.22,0,1,1-4.89,3.42A4.22,4.22,0,0,1,135.8,128.82Zm3.69-10.91a4.22,4.22,0,1,1-5.41,2.52A4.22,4.22,0,0,1,139.49,117.91ZM145,107.8a4.22,4.22,0,1,1-5.77,1.55A4.23,4.23,0,0,1,145,107.8Zm7.2-9a4.22,4.22,0,1,1-6,.52A4.23,4.23,0,0,1,152.21,98.81Zm8.64-7.61a4.22,4.22,0,1,1-5.94-.52A4.22,4.22,0,0,1,160.85,91.2Zm9.84-6a4.22,4.22,0,1,1-5.77-1.54A4.23,4.23,0,0,1,170.69,85.21ZM181.42,81A4.22,4.22,0,1,1,176,78.5,4.23,4.23,0,0,1,181.42,81Zm11.29-2.26a4.22,4.22,0,1,1-4.89-3.43A4.22,4.22,0,0,1,192.71,78.76Zm11.62,8.53a2.76,2.76,0,1,0,2.55,3A2.78,2.78,0,0,0,204.33,87.29Zm9.85,1.62a2.76,2.76,0,1,0,2,3.36A2.77,2.77,0,0,0,214.18,88.91Zm9.43,3.31A2.76,2.76,0,1,0,225,95.87,2.77,2.77,0,0,0,223.61,92.22Zm8.7,4.89A2.76,2.76,0,1,0,233,101,2.76,2.76,0,0,0,232.31,97.11Zm7.73,6.33a2.76,2.76,0,1,0,.05,3.91A2.76,2.76,0,0,0,240,103.44Zm6.51,7.58a2.76,2.76,0,1,0-.64,3.85A2.77,2.77,0,0,0,246.55,111Zm5.09,8.59a2.76,2.76,0,1,0-1.29,3.68A2.76,2.76,0,0,0,251.64,119.61Zm3.53,9.34a2.77,2.77,0,1,0-1.92,3.41A2.76,2.76,0,0,0,255.17,129Zm1.85,9.82a2.76,2.76,0,1,0-2.48,3A2.77,2.77,0,0,0,257,138.77Zm.11,10a2.76,2.76,0,1,0-3,2.55A2.75,2.75,0,0,0,257.13,148.75Zm-1.62,9.86a2.76,2.76,0,1,0-3.36,2A2.77,2.77,0,0,0,255.51,158.61Zm-3.3,9.42a2.77,2.77,0,1,0-3.66,1.38A2.77,2.77,0,0,0,252.21,168Zm-4.9,8.71a2.76,2.76,0,1,0-3.84.72A2.76,2.76,0,0,0,247.31,176.74ZM241,184.46a2.76,2.76,0,1,0-3.91,0A2.76,2.76,0,0,0,241,184.46ZM233.41,191a2.77,2.77,0,1,0-3.86-.63A2.77,2.77,0,0,0,233.41,191Zm-8.59,5.1a2.77,2.77,0,1,0-3.69-1.3A2.77,2.77,0,0,0,224.82,196.07Zm-9.35,3.52a2.76,2.76,0,1,0-3.4-1.91A2.77,2.77,0,0,0,215.47,199.59Zm-9.81,1.85a2.76,2.76,0,1,0-3-2.48A2.77,2.77,0,0,0,205.66,201.44Zm-10,.12a2.77,2.77,0,1,0-2.55-3A2.78,2.78,0,0,0,195.67,201.56Zm-9.85-1.62a2.76,2.76,0,1,0-2-3.37A2.77,2.77,0,0,0,185.82,199.94Zm-9.43-3.31A2.77,2.77,0,1,0,175,193,2.77,2.77,0,0,0,176.39,196.63Zm-8.7-4.89a2.76,2.76,0,1,0-.73-3.84A2.77,2.77,0,0,0,167.69,191.74ZM160,185.41a2.77,2.77,0,1,0-.05-3.91A2.77,2.77,0,0,0,160,185.41Zm-6.51-7.58a2.76,2.76,0,1,0,.64-3.86A2.77,2.77,0,0,0,153.45,177.83Zm-5.09-8.59a2.76,2.76,0,1,0,1.29-3.69A2.75,2.75,0,0,0,148.36,169.24Zm-3.53-9.34a2.77,2.77,0,1,0,1.92-3.41A2.77,2.77,0,0,0,144.83,159.9ZM143,150.08a2.76,2.76,0,1,0,2.48-3A2.77,2.77,0,0,0,143,150.08Zm-.11-10a2.76,2.76,0,1,0,3-2.54A2.76,2.76,0,0,0,142.87,140.09Zm1.62-9.85a2.76,2.76,0,1,0,3.36-2A2.76,2.76,0,0,0,144.49,130.24Zm3.3-9.42a2.76,2.76,0,1,0,3.66-1.38A2.76,2.76,0,0,0,147.79,120.82Zm4.9-8.71a2.76,2.76,0,1,0,3.84-.73A2.76,2.76,0,0,0,152.69,112.11Zm6.33-7.73a2.76,2.76,0,1,0,3.91,0A2.76,2.76,0,0,0,159,104.38Zm7.57-6.5a2.77,2.77,0,1,0,3.86.63A2.75,2.75,0,0,0,166.59,97.88Zm8.59-5.1a2.76,2.76,0,1,0,3.69,1.29A2.77,2.77,0,0,0,175.18,92.78Zm9.35-3.52a2.76,2.76,0,1,0,3.4,1.91A2.76,2.76,0,0,0,184.53,89.26Zm9.81-1.85a2.76,2.76,0,1,0,3,2.47A2.76,2.76,0,0,0,194.34,87.41ZM207.8,97.47a1.75,1.75,0,1,0,1.44,2A1.75,1.75,0,0,0,207.8,97.47Zm8,2.07a1.75,1.75,0,1,0,1.07,2.23A1.75,1.75,0,0,0,215.83,99.54Zm7.56,3.43a1.75,1.75,0,1,0,.66,2.38A1.75,1.75,0,0,0,223.39,103Zm6.84,4.69a1.75,1.75,0,1,0,.24,2.46A1.75,1.75,0,0,0,230.23,107.66Zm5.92,5.81a1.74,1.74,0,1,0-.19,2.46A1.73,1.73,0,0,0,236.15,113.47Zm4.83,6.75a1.75,1.75,0,1,0-.62,2.39A1.74,1.74,0,0,0,241,120.22Zm3.58,7.48a1.75,1.75,0,1,0-1,2.25A1.75,1.75,0,0,0,244.56,127.7Zm2.23,8a1.75,1.75,0,1,0-1.4,2A1.76,1.76,0,0,0,246.79,135.69Zm.8,8.26a1.75,1.75,0,1,0-1.73,1.77A1.74,1.74,0,0,0,247.59,144Zm-.64,8.27a1.75,1.75,0,1,0-2,1.44A1.74,1.74,0,0,0,247,152.22Zm-2.06,8a1.75,1.75,0,1,0-2.23,1.06A1.75,1.75,0,0,0,244.89,160.26Zm-3.44,7.55a1.75,1.75,0,1,0-2.38.66A1.74,1.74,0,0,0,241.45,167.81Zm-4.69,6.84a1.74,1.74,0,0,0-.24-2.46,1.75,1.75,0,0,0-2.22,2.7A1.74,1.74,0,0,0,236.76,174.65Zm-5.8,5.93a1.75,1.75,0,1,0-2.47-.19A1.76,1.76,0,0,0,231,180.58Zm-6.75,4.82a1.75,1.75,0,1,0-2.4-.61A1.74,1.74,0,0,0,224.21,185.4ZM216.72,189a1.75,1.75,0,1,0-2.25-1A1.75,1.75,0,0,0,216.72,189Zm-8,2.22a1.75,1.75,0,1,0-2-1.4A1.74,1.74,0,0,0,208.73,191.21Zm-8.26.81a1.75,1.75,0,1,0-1.76-1.73A1.75,1.75,0,0,0,200.47,192Zm-8.27-.64a1.75,1.75,0,1,0-1.44-2A1.75,1.75,0,0,0,192.2,191.38Zm-8-2.07a1.75,1.75,0,1,0-1.07-2.23A1.75,1.75,0,0,0,184.17,189.31Zm-7.56-3.43a1.75,1.75,0,1,0-.66-2.38A1.76,1.76,0,0,0,176.61,185.88Zm-6.84-4.69a1.75,1.75,0,1,0-.24-2.46A1.75,1.75,0,0,0,169.77,181.19Zm-5.92-5.81a1.75,1.75,0,1,0,.19-2.47A1.74,1.74,0,0,0,163.85,175.38ZM159,168.63a1.75,1.75,0,1,0,.62-2.39A1.75,1.75,0,0,0,159,168.63Zm-3.58-7.48a1.75,1.75,0,1,0,1-2.25A1.75,1.75,0,0,0,155.44,161.15Zm-2.23-8a1.75,1.75,0,1,0,1.4-2A1.75,1.75,0,0,0,153.21,153.15Zm-.8-8.25a1.75,1.75,0,1,0,1.73-1.77A1.75,1.75,0,0,0,152.41,144.9Zm.64-8.27a1.75,1.75,0,1,0,2-1.44A1.74,1.74,0,0,0,153.05,136.63Zm2.06-8a1.75,1.75,0,1,0,2.23-1.07A1.75,1.75,0,0,0,155.11,128.59Zm3.44-7.55a1.74,1.74,0,1,0,2.38-.67A1.74,1.74,0,0,0,158.55,121Zm4.69-6.85a1.75,1.75,0,0,0,2.7,2.22,1.75,1.75,0,0,0-2.7-2.22Zm5.8-5.92a1.75,1.75,0,1,0,2.47.19A1.74,1.74,0,0,0,169,108.27Zm6.75-4.83a1.75,1.75,0,1,0,2.4.62A1.76,1.76,0,0,0,175.79,103.44Zm7.49-3.58a1.75,1.75,0,1,0,2.25,1A1.75,1.75,0,0,0,183.28,99.86Zm8-2.23a1.75,1.75,0,1,0,2,1.4A1.75,1.75,0,0,0,191.27,97.63Zm8.26-.8a1.75,1.75,0,1,0,1.76,1.73A1.74,1.74,0,0,0,199.53,96.83Zm-64.26,140-4.61-3.49-3.16,3.49,4.63,3.48Zm7.76,0-4.58-3.49-3.18,3.49,4.63,3.48ZM142.9,278l4.64,3.48,3.13-3.48-4.61-3.48Zm7.77,0,4.63,3.48,3.13-3.48-4.58-3.48Zm56.09,0,4.63,3.48,3.13-3.48-4.58-3.48ZM199,278l4.63,3.48,3.13-3.48-4.61-3.48Zm32-38.84-.68.2a11.12,11.12,0,0,1-4.56.28A3.71,3.71,0,0,1,223,238a4,4,0,0,1,3.41-1.37,8,8,0,0,1,2.3.3l.78-3.23a7.22,7.22,0,0,0-2.7-.48,6.2,6.2,0,0,0-4.09,1.45,4.39,4.39,0,0,0-1.75,3.46,3.3,3.3,0,0,0,1.53,3v0l-2,.52-.55,3,10.47-2.5Zm-2,8.94-4.16,3.71a42.11,42.11,0,0,1,2.86,10.86,40.58,40.58,0,0,1-8.14.63q-4.76,0-6.14-1.3c-1-.94-1.46-2.92-1.27-6l.17-3.13-3,.65-.45,3.35q-.59,4-1.83,5.19t-4.74,1.2q-4.61,0-6.13-1.4t-1.55-5.79v-3.2l-3,.67-.71,10-.45,0a.47.47,0,0,0-.17,0l-.48,0h-.47c-2,0-3.37-.43-4.19-1.3s-1.2-2.36-1.05-4.38l.15-2-2.88.58-.4,2.5a6.11,6.11,0,0,1-1.58,3.61,3.93,3.93,0,0,1-2.87,1c-2.71,0-3.9-1.62-3.59-4.84l.3-2.83-2.85.58-.35,1.65c-.44,2.12-1.1,3.51-2,4.16s-2.38.95-4.54.95q-4.76,0-6.13-1.3c-1-.94-1.46-2.92-1.28-6l.18-3.13-3,.65-.45,3.35q-.57,4-1.83,5.19c-.82.8-2.39,1.2-4.73,1.2h0c-2.52,0-4.24-.5-5.18-1.5s-1.38-2.76-1.38-5.36V243l-4.41,1.77V248l-9.91,4.88a30.18,30.18,0,0,0-2.33,5.39,5.42,5.42,0,0,0,2.4,4.25,8.41,8.41,0,0,0,5.31,1.81,8.74,8.74,0,0,0,2.21-.25l2.38-2.63h.1q1.09,8.16,9.66,8.16h0a18.4,18.4,0,0,0,5.86-.7,5.93,5.93,0,0,0,3.05-2.4,6.54,6.54,0,0,0,3.16,2.4,15.23,15.23,0,0,0,5.18.7,15.51,15.51,0,0,0,4.71-.55,6.36,6.36,0,0,0,3-2.13,6.53,6.53,0,0,0,5.78,2.68,7.06,7.06,0,0,0,6-2.68q2.16,2.69,7.71,2.68a5.54,5.54,0,0,0,1.2-.12l2.58-3c1.41,2.09,4,3.13,7.79,3.13a18.32,18.32,0,0,0,5.86-.7,6,6,0,0,0,3.06-2.4,6.47,6.47,0,0,0,3.15,2.4,15.25,15.25,0,0,0,5.19.7q7.43,0,11.44-1.63,1.65-2.67,1.65-7.76A32.13,32.13,0,0,0,229,248.07Zm-93.79,11a15.54,15.54,0,0,1-5-.42,6.68,6.68,0,0,1-3.56-2.51l8.51-4Zm124.62,3.53a16.79,16.79,0,0,1-5,.63c-2.49,0-4.26-.41-5.33-1.23s-2-2.41-2.83-4.88l-.8-2.35-4.06,3.4q1.95,4.52,3.46,9.17a12.41,12.41,0,0,1-4.19,5.71,10.12,10.12,0,0,1-6.23,2.1,30.92,30.92,0,0,1-3.93-.27v1.77l7.84,4.16q3.19,0,6.11-4a21.65,21.65,0,0,0,3.75-9.26,7.21,7.21,0,0,0,5.06,2c3.31,0,5.81-.42,7.51-1.28q3.14-3.42,3.13-9.91V231.92l-4.45,1.85Zm12.74-28.87v36.11h1.51l2.95-6.43V231.92Z" style="fill-rule:evenodd;fill:url(#linear-gradient)"/></g></svg>