<svg id="Layer_1" data-name="Layer 1" xmlns="http://www.w3.org/2000/svg" xmlns:xlink="http://www.w3.org/1999/xlink" viewBox="0 0 400 355.72"><defs><linearGradient id="linear-gradient" x1="129.85" y1="153.04" x2="270.15" y2="153.04" gradientUnits="userSpaceOnUse"><stop offset="0" stop-color="#056766"/><stop offset="0.16" stop-color="#0c6d6d"/><stop offset="0.4" stop-color="#1e7f80"/><stop offset="0.68" stop-color="#3d9b9f"/><stop offset="1" stop-color="#67c2ca"/><stop offset="1" stop-color="#68c3cb"/></linearGradient><linearGradient id="linear-gradient-2" x1="35.41" y1="253.13" x2="364.59" y2="253.13" xlink:href="#linear-gradient"/></defs><title>الحكم الشرعي والفتاوى</title><path d="M204.22,87.11A4.22,4.22,0,1,1,200,82.89,4.22,4.22,0,0,1,204.22,87.11Zm11.39,1.73A4.22,4.22,0,1,1,212.18,84,4.23,4.23,0,0,1,215.61,88.84Zm10.91,3.69A4.22,4.22,0,1,1,224,87.12,4.22,4.22,0,0,1,226.52,92.53Zm10.1,5.52a4.22,4.22,0,1,1-1.54-5.76A4.23,4.23,0,0,1,236.62,98.05Zm9,7.2a4.22,4.22,0,1,1-.52-6A4.22,4.22,0,0,1,245.61,105.25Zm7.61,8.64a4.22,4.22,0,1,1,.52-5.94A4.22,4.22,0,0,1,253.22,113.89Zm6,9.84a4.22,4.22,0,1,1,1.55-5.77A4.22,4.22,0,0,1,259.21,123.73Zm4.19,10.73a4.22,4.22,0,1,1,2.52-5.41A4.22,4.22,0,0,1,263.4,134.46Zm2.26,11.29a4.22,4.22,0,1,1,3.43-4.89A4.23,4.23,0,0,1,265.66,145.75Zm.27,11.51a4.22,4.22,0,1,1,4.22-4.22A4.22,4.22,0,0,1,265.93,157.26Zm-1.73,11.39a4.22,4.22,0,1,1,4.89-3.43A4.23,4.23,0,0,1,264.2,168.65Zm-3.69,10.91a4.22,4.22,0,1,1,5.41-2.53A4.22,4.22,0,0,1,260.51,179.56ZM255,189.66a4.22,4.22,0,1,1,5.77-1.54A4.22,4.22,0,0,1,255,189.66Zm-7.2,9a4.22,4.22,0,1,1,6-.53A4.23,4.23,0,0,1,247.79,198.66Zm-8.64,7.6a4.22,4.22,0,1,1,5.94.52A4.22,4.22,0,0,1,239.15,206.26Zm-9.84,6a4.22,4.22,0,1,1,5.77,1.55A4.23,4.23,0,0,1,229.31,212.25Zm-10.73,4.19A4.22,4.22,0,1,1,224,219,4.22,4.22,0,0,1,218.58,216.44Zm-11.29,2.26a4.22,4.22,0,1,1,4.89,3.43A4.23,4.23,0,0,1,207.29,218.7Zm-11.51.27a4.22,4.22,0,1,1,4.22,4.22A4.22,4.22,0,0,1,195.78,219Zm-11.39-1.73a4.22,4.22,0,1,1,3.43,4.89A4.23,4.23,0,0,1,184.39,217.24Zm-10.91-3.69A4.22,4.22,0,1,1,176,219,4.22,4.22,0,0,1,173.48,213.55ZM163.38,208a4.22,4.22,0,1,1,1.54,5.77A4.23,4.23,0,0,1,163.38,208Zm-9-7.2a4.22,4.22,0,1,1,.52,5.95A4.22,4.22,0,0,1,154.39,200.83Zm-7.61-8.64a4.22,4.22,0,1,1-.52,5.94A4.22,4.22,0,0,1,146.78,192.19Zm-6-9.84a4.22,4.22,0,1,1-1.55,5.77A4.22,4.22,0,0,1,140.79,182.35Zm-4.19-10.73a4.22,4.22,0,1,1-2.52,5.41A4.23,4.23,0,0,1,136.6,171.62Zm-2.26-11.29a4.22,4.22,0,1,1-3.43,4.89A4.23,4.23,0,0,1,134.34,160.33Zm-.27-11.51a4.22,4.22,0,1,1-4.22,4.22A4.22,4.22,0,0,1,134.07,148.82Zm1.73-11.39a4.22,4.22,0,1,1-4.89,3.43A4.23,4.23,0,0,1,135.8,137.43Zm3.69-10.91a4.22,4.22,0,1,1-5.41,2.53A4.22,4.22,0,0,1,139.49,126.52Zm5.52-10.1a4.22,4.22,0,1,1-5.77,1.54A4.23,4.23,0,0,1,145,116.42Zm7.2-9a4.22,4.22,0,1,1-6,.52A4.22,4.22,0,0,1,152.21,107.43Zm8.64-7.61a4.22,4.22,0,1,1-5.94-.52A4.22,4.22,0,0,1,160.85,99.82Zm9.84-6a4.22,4.22,0,1,1-5.77-1.54A4.23,4.23,0,0,1,170.69,93.83Zm10.73-4.19A4.22,4.22,0,1,1,176,87.12,4.22,4.22,0,0,1,181.42,89.64Zm11.29-2.26A4.22,4.22,0,1,1,187.82,84,4.23,4.23,0,0,1,192.71,87.38Zm11.62,8.53a2.76,2.76,0,1,0,2.55,3A2.77,2.77,0,0,0,204.33,95.91Zm9.85,1.62a2.76,2.76,0,1,0,2,3.36A2.76,2.76,0,0,0,214.18,97.53Zm9.43,3.3a2.77,2.77,0,1,0,1.38,3.66A2.78,2.78,0,0,0,223.61,100.83Zm8.7,4.9a2.76,2.76,0,1,0,.73,3.84A2.76,2.76,0,0,0,232.31,105.73Zm7.73,6.33a2.76,2.76,0,1,0,.05,3.91A2.76,2.76,0,0,0,240,112.06Zm6.51,7.57a2.77,2.77,0,1,0-.64,3.86A2.77,2.77,0,0,0,246.55,119.63Zm5.09,8.59a2.76,2.76,0,1,0-1.29,3.69A2.77,2.77,0,0,0,251.64,128.22Zm3.53,9.35a2.77,2.77,0,1,0-1.92,3.41A2.77,2.77,0,0,0,255.17,137.57Zm1.85,9.81a2.76,2.76,0,1,0-2.48,3A2.77,2.77,0,0,0,257,147.38Zm.11,10a2.76,2.76,0,1,0-3,2.55A2.77,2.77,0,0,0,257.13,157.37Zm-1.62,9.85a2.76,2.76,0,1,0-3.36,2A2.76,2.76,0,0,0,255.51,167.22Zm-3.3,9.43a2.77,2.77,0,1,0-3.66,1.38A2.77,2.77,0,0,0,252.21,176.65Zm-4.9,8.71a2.76,2.76,0,1,0-3.84.72A2.77,2.77,0,0,0,247.31,185.36ZM241,193.08a2.76,2.76,0,1,0-3.91,0A2.76,2.76,0,0,0,241,193.08Zm-7.57,6.51a2.77,2.77,0,1,0-3.86-.64A2.77,2.77,0,0,0,233.41,199.59Zm-8.59,5.09a2.76,2.76,0,1,0-3.69-1.29A2.77,2.77,0,0,0,224.82,204.68Zm-9.35,3.53a2.76,2.76,0,1,0-3.4-1.92A2.77,2.77,0,0,0,215.47,208.21Zm-9.81,1.85a2.76,2.76,0,1,0-3-2.48A2.77,2.77,0,0,0,205.66,210.06Zm-10,.11a2.76,2.76,0,1,0-2.55-3A2.77,2.77,0,0,0,195.67,210.17Zm-9.85-1.62a2.76,2.76,0,1,0-2-3.36A2.76,2.76,0,0,0,185.82,208.55Zm-9.43-3.3a2.77,2.77,0,1,0-1.38-3.66A2.77,2.77,0,0,0,176.39,205.25Zm-8.7-4.9a2.76,2.76,0,1,0-.73-3.84A2.76,2.76,0,0,0,167.69,200.35ZM160,194a2.76,2.76,0,1,0-.05-3.9A2.76,2.76,0,0,0,160,194Zm-6.51-7.57a2.76,2.76,0,1,0,.64-3.86A2.77,2.77,0,0,0,153.45,186.45Zm-5.09-8.59a2.76,2.76,0,1,0,1.29-3.69A2.77,2.77,0,0,0,148.36,177.86Zm-3.53-9.35a2.77,2.77,0,1,0,1.92-3.4A2.77,2.77,0,0,0,144.83,168.51ZM143,158.7a2.76,2.76,0,1,0,2.48-3A2.77,2.77,0,0,0,143,158.7Zm-.11-10a2.76,2.76,0,1,0,3-2.55A2.77,2.77,0,0,0,142.87,148.71Zm1.62-9.85a2.76,2.76,0,1,0,3.36-2A2.76,2.76,0,0,0,144.49,138.86Zm3.3-9.43a2.77,2.77,0,1,0,3.66-1.38A2.77,2.77,0,0,0,147.79,129.43Zm4.9-8.7a2.76,2.76,0,1,0,3.84-.73A2.76,2.76,0,0,0,152.69,120.73ZM159,113a2.76,2.76,0,1,0,3.91,0A2.76,2.76,0,0,0,159,113Zm7.57-6.51a2.77,2.77,0,1,0,3.86.64A2.77,2.77,0,0,0,166.59,106.49Zm8.59-5.09a2.76,2.76,0,1,0,3.69,1.29A2.77,2.77,0,0,0,175.18,101.4Zm9.35-3.53a2.77,2.77,0,1,0,3.4,1.92A2.77,2.77,0,0,0,184.53,97.87ZM194.34,96a2.77,2.77,0,1,0,3,2.48A2.78,2.78,0,0,0,194.34,96Zm13.46,10.07a1.75,1.75,0,1,0,1.44,2A1.76,1.76,0,0,0,207.8,106.09Zm8,2.06a1.75,1.75,0,1,0,1.07,2.24A1.75,1.75,0,0,0,215.83,108.15Zm7.56,3.44a1.75,1.75,0,1,0,.66,2.38A1.75,1.75,0,0,0,223.39,111.59Zm6.84,4.69A1.75,1.75,0,0,0,228,119a1.75,1.75,0,1,0,2.22-2.7Zm5.92,5.8a1.75,1.75,0,1,0-.19,2.47A1.75,1.75,0,0,0,236.15,122.08Zm4.83,6.75a1.75,1.75,0,1,0-.62,2.4A1.74,1.74,0,0,0,241,128.83Zm3.58,7.49a1.75,1.75,0,1,0-1,2.25A1.75,1.75,0,0,0,244.56,136.32Zm2.23,8a1.75,1.75,0,1,0-1.4,2A1.75,1.75,0,0,0,246.79,144.31Zm.8,8.26a1.75,1.75,0,1,0-1.73,1.76A1.74,1.74,0,0,0,247.59,152.57Zm-.64,8.27a1.75,1.75,0,1,0-2,1.44A1.74,1.74,0,0,0,247,160.84Zm-2.06,8a1.75,1.75,0,1,0-2.23,1.07A1.75,1.75,0,0,0,244.89,168.87Zm-3.44,7.56a1.75,1.75,0,1,0-2.38.66A1.74,1.74,0,0,0,241.45,176.43Zm-4.69,6.84a1.75,1.75,0,1,0-2.7-2.22,1.75,1.75,0,1,0,2.7,2.22ZM231,189.2a1.75,1.75,0,1,0-2.47-.2A1.76,1.76,0,0,0,231,189.2ZM224.21,194a1.75,1.75,0,1,0-2.4-.61A1.74,1.74,0,0,0,224.21,194Zm-7.49,3.58a1.75,1.75,0,1,0-2.25-1A1.74,1.74,0,0,0,216.72,197.6Zm-8,2.23a1.75,1.75,0,1,0-2-1.4A1.75,1.75,0,0,0,208.73,199.83Zm-8.26.8a1.75,1.75,0,1,0-1.76-1.73A1.74,1.74,0,0,0,200.47,200.63ZM192.2,200a1.75,1.75,0,1,0,.57-3.45,1.75,1.75,0,1,0-.57,3.45Zm-8-2.06a1.75,1.75,0,1,0-1.07-2.23A1.75,1.75,0,0,0,184.17,197.93Zm-7.56-3.43a1.75,1.75,0,1,0,1.72-3.05,1.75,1.75,0,0,0-1.72,3.05Zm-6.84-4.7a1.75,1.75,0,0,0,2.22-2.7,1.75,1.75,0,0,0-2.22,2.7Zm-5.92-5.8a1.75,1.75,0,1,0,.19-2.47A1.74,1.74,0,0,0,163.85,184ZM159,177.25a1.75,1.75,0,1,0,.62-2.4A1.73,1.73,0,0,0,159,177.25Zm-3.58-7.49a1.75,1.75,0,1,0,1-2.25A1.75,1.75,0,0,0,155.44,169.76Zm-2.23-8a1.75,1.75,0,1,0,1.4-2A1.75,1.75,0,0,0,153.21,161.77Zm-.8-8.26a1.75,1.75,0,1,0,1.73-1.76A1.76,1.76,0,0,0,152.41,153.51Zm.64-8.27a1.75,1.75,0,0,0,3.45.58,1.75,1.75,0,1,0-3.45-.58Zm2.06-8a1.75,1.75,0,1,0,2.23-1.07A1.75,1.75,0,0,0,155.11,137.21Zm3.44-7.56a1.75,1.75,0,1,0,2.38-.66A1.75,1.75,0,0,0,158.55,129.65Zm4.69-6.84a1.75,1.75,0,0,0,2.7,2.22,1.75,1.75,0,0,0-2.7-2.22Zm5.8-5.92a1.75,1.75,0,1,0,2.47.19A1.74,1.74,0,0,0,169,116.89Zm6.75-4.83a1.75,1.75,0,1,0,2.4.62A1.74,1.74,0,0,0,175.79,112.06Zm7.49-3.58a1.75,1.75,0,1,0,2.25,1A1.75,1.75,0,0,0,183.28,108.48Zm8-2.23a1.75,1.75,0,1,0,2,1.4A1.75,1.75,0,0,0,191.27,106.25Zm8.26-.8a1.75,1.75,0,1,0,1.76,1.73A1.74,1.74,0,0,0,199.53,105.45Zm-21.21,52.09V148l-4.78,4.78Zm2.6,13h6.76l-6.76-6.76Zm0-35.61v6.8l6.76-6.8Zm17.79-7.36-4.78,4.78h9.56Zm0,50.33,4.78-4.78h-9.56Zm17.8-36.17v-6.8h-6.77Zm-25.18-6.8-10.41,10.44v14.75l10.41,10.42h14.74l10.44-10.42V145.38l-10.44-10.44Zm25.18,35.61v-6.76l-6.77,6.76Zm2.6-13,4.78-4.78L219.11,148Zm5.43-14.91a1.37,1.37,0,0,1-.39-1V127.32H209.83a1.5,1.5,0,0,1-1-.38l-10.13-10.15-10.13,10.15a1.47,1.47,0,0,1-1,.38H173.29v14.32a1.41,1.41,0,0,1-.43,1l-10.13,10.13,10.13,10.13a1.36,1.36,0,0,1,.43,1v14.33h14.32a1.3,1.3,0,0,1,1,.42l10.13,10.11,10.13-10.11a1.32,1.32,0,0,1,1-.42h14.32V163.84a1.31,1.31,0,0,1,.39-1l10.13-10.13Zm-5.43,18.58v10.64a1.3,1.3,0,0,1-1.3,1.28H207.15l-7.52,7.55a1.27,1.27,0,0,1-.92.36,1.2,1.2,0,0,1-.9-.36l-7.54-7.55H179.62a1.28,1.28,0,0,1-1.3-1.28V161.21l-7.53-7.55a1.2,1.2,0,0,1-.36-.9,1.3,1.3,0,0,1,.36-.93l7.53-7.51V133.66a1.29,1.29,0,0,1,1.3-1.3h10.65l7.54-7.51a1.27,1.27,0,0,1,1.82,0l7.52,7.51h10.66a1.31,1.31,0,0,1,1.3,1.3v10.66l7.51,7.51a1.29,1.29,0,0,1,.39.93,1.19,1.19,0,0,1-.39.9Zm-40.79-3.67V148l-4.78,4.78Zm2.6,13h6.76l-6.76-6.76Zm0-35.61v6.8l6.76-6.8Zm17.79-7.36-4.78,4.78h9.56Zm0,50.33,4.78-4.78h-9.56Zm17.8-36.17v-6.8h-6.77Zm-25.18-6.8-10.41,10.44v14.75l10.41,10.42h14.74l10.44-10.42V145.38l-10.44-10.44Zm25.18,35.61v-6.76l-6.77,6.76Zm2.6-22.57v9.56l4.78-4.78Zm0,0v9.56l4.78-4.78Zm-9.37,22.57h6.77v-6.76Zm0-35.61,6.77,6.8v-6.8Zm-15.81,38.19,4.78,4.78,4.78-4.78Zm4.78-45.55-4.78,4.78h9.56Zm-17.79,7.36v6.8l6.76-6.8Zm0,28.85v6.76h6.76Zm-7.38-11,4.78,4.78V148Zm32.53-17.82H191.33l-10.41,10.44v14.75l10.41,10.42h14.74l10.44-10.42V145.38Z" style="fill-rule:evenodd;fill:url(#linear-gradient)"/><path d="M49.91,254.08c0,.49.36.88,1.07,1.16a34.65,34.65,0,0,0,3.39.82A11.44,11.44,0,0,1,58,257.23a2.77,2.77,0,0,1,1,2.44,13.12,13.12,0,0,1-.68,3.78,14.8,14.8,0,0,1-5.42,4.19,17.11,17.11,0,0,1-7.14,1.52c-3.31,0-5.86-.81-7.67-2.43a8.34,8.34,0,0,1-2.7-6.59,20.62,20.62,0,0,1,1.79-7.79h2.06a20.38,20.38,0,0,0-1,5.88q0,6.66,7.92,6.66a16.43,16.43,0,0,0,6-1.09,13.71,13.71,0,0,0,4.64-2.95,7.77,7.77,0,0,0-2.22-.73l-2.93-.6a8.08,8.08,0,0,1-3.35-1.44,3,3,0,0,1-1-2.38,7.35,7.35,0,0,1,.93-3.43,13.67,13.67,0,0,1,2.4-3.17c2.24-2.16,4.51-3.24,6.83-3.24a5.14,5.14,0,0,1,3.66,1.39l-1.78,3.84A5,5,0,0,0,56.16,250a7.52,7.52,0,0,0-4.23,1.42C50.58,252.32,49.91,253.21,49.91,254.08Zm24.73-3.92a13.22,13.22,0,0,1,1.71,6.72,13.88,13.88,0,0,1-2.8,8.36A11.06,11.06,0,0,1,70.69,268a5.92,5.92,0,0,1-3.24,1.05q-3-1.45-6.27-3V264.8a29.2,29.2,0,0,0,3.41.22,10.31,10.31,0,0,0,5.92-1.75,9.74,9.74,0,0,0,3.71-4.82h-.09a6.38,6.38,0,0,1-4.28,1.45,5,5,0,0,1-3.49-1.25A4.28,4.28,0,0,1,65,255.42a10.36,10.36,0,0,1,1.68-5.66q1.71-2.7,3.8-2.7C72.06,247.06,73.45,248.1,74.64,250.16Zm-1,5.06a7.22,7.22,0,0,0-1.42-2.8,2.76,2.76,0,0,0-2.09-1.06,2.47,2.47,0,0,0-1.91,1.08,5.7,5.7,0,0,0-1.2,2.8,4.17,4.17,0,0,0,3.15,1A6.06,6.06,0,0,0,73.6,255.22ZM95.75,243l-3.35-2.53L90.11,243l3.36,2.53Zm5.65,0-3.34-2.53L95.75,243l3.37,2.53Zm14.31-4.59-3.33-2.51-2.31,2.55,3.35,2.51Zm9.46-3.61,3.24-1.34v19.28q0,4.72-2.28,7.21a12.59,12.59,0,0,1-5.46.93h0q-6,0-9-1.93c-1.81,1.29-4.78,1.93-8.89,1.93h0a14.15,14.15,0,0,1-4.37-.51,4.57,4.57,0,0,1-2.39-1.75,4.11,4.11,0,0,1-2.28,1.75,15,15,0,0,1-4.57.51h0q-3.68,0-5.46-1.85c-1.2-1.27-1.8-3.23-1.8-5.91V234.84l3.24-1.34v18.17c0,1.79.33,3,1,3.64s2,1,3.88,1h0c1.86,0,3.12-.29,3.77-.88s1.11-1.84,1.37-3.77l.32-2.44,2.19-.47L97.57,251a10.39,10.39,0,0,0,.13,2.74,2.77,2.77,0,0,0,.87,1.6q1.11.94,5.09,1h0a26.82,26.82,0,0,0,4.28-.33,4,4,0,0,1-1.31-2.79,9.85,9.85,0,0,1,2.14-5.72c1.48-2,3-3,4.48-3s2.52.8,3.45,2.41a9.22,9.22,0,0,1,1.25,4.71A6.62,6.62,0,0,1,116,256a34.3,34.3,0,0,0,5.46.35,12.07,12.07,0,0,0,3.67-.46Zm-9.64,18.52a6.87,6.87,0,0,0-1-3.27,2.47,2.47,0,0,0-2.08-1.24,3.14,3.14,0,0,0-2,.87,8.72,8.72,0,0,0-1.82,2.32,10,10,0,0,0,3.4,3.22A11.68,11.68,0,0,0,115.53,253.36Zm18.9,7.74h1.1l2.15-4.68V233.5l-3.25,1.34Zm19.49-10.94a13.22,13.22,0,0,1,1.71,6.72,13,13,0,0,1-3.07,8.45,12.44,12.44,0,0,1-3.19,2.73,7.53,7.53,0,0,1-3.68,1l-6.48-2.95v-1.29a35.72,35.72,0,0,0,3.62.2,12.43,12.43,0,0,0,6.76-1.77,9.71,9.71,0,0,0,3.91-4.82h-.09a6.38,6.38,0,0,1-4.28,1.45,5,5,0,0,1-3.49-1.25,4.25,4.25,0,0,1-1.37-3.23,10.36,10.36,0,0,1,1.68-5.66q1.71-2.7,3.8-2.7C151.34,247.06,152.73,248.1,153.92,250.16Zm-1,5.06a7.22,7.22,0,0,0-1.42-2.8,2.76,2.76,0,0,0-2.09-1.06,2.47,2.47,0,0,0-1.91,1.08,5.8,5.8,0,0,0-1.21,2.8,4.21,4.21,0,0,0,3.16,1A6.06,6.06,0,0,0,152.88,255.22Zm25.87,14.34,3.28,2.36,2.2-2.36L181,267.19Zm-5.47,0,3.26,2.36,2.21-2.36-3.25-2.37Zm35.44-11.95.88-4.32-2.06.18a15.86,15.86,0,0,1-7-.76,6.93,6.93,0,0,1-4.26-3.32,5.85,5.85,0,0,1,2.64-2,11,11,0,0,1,4.06-.71,15.82,15.82,0,0,1,3.61.35l0-1.3-3.7-2.82a7.78,7.78,0,0,0-1.33-.11,7.58,7.58,0,0,0-5.32,2,6.44,6.44,0,0,0-2.24,4.94,4.76,4.76,0,0,0,.77,2.6,5.07,5.07,0,0,0,1.91,1.8v.09h-3.68a86.1,86.1,0,0,1-9.05-.76l-.95,3.53a11.31,11.31,0,0,1,5.36,1.91,19.67,19.67,0,0,1-10.79,3q-8,0-8-6.68a20.85,20.85,0,0,1,1-5.89H168.6a20.68,20.68,0,0,0-1.78,7.8,8.33,8.33,0,0,0,2.71,6.61q2.78,2.44,7.78,2.44A20.12,20.12,0,0,0,190,262l.64-3.21a10.85,10.85,0,0,0,1.5.13h.06a107.09,107.09,0,0,0,14.08-1Zm36.52-13.5-3.3-2.49-2.27,2.49,3.31,2.5Zm-5.57,0-3.32-2.49-2.26,2.49,3.32,2.5Zm2.06-4.66L238.41,237l-2.26,2.49,3.32,2.5ZM258,255.84a12.07,12.07,0,0,1-3.67.46c-2.23,0-3.72-.34-4.46-1s-1.1-2.09-1.13-4.21v-2.33l-2.2.49-.51,7.27-.33,0h-.13a1.83,1.83,0,0,1-.34,0h-.35a3.27,3.27,0,0,1-3.8-4.13l.11-1.46-2.1.42-.29,1.82a4.48,4.48,0,0,1-1.15,2.62,2.83,2.83,0,0,1-2.09.71q-3,0-2.61-3.51l.22-2.06-2.07.42-.26,1.2a4.85,4.85,0,0,1-1.46,3,5.71,5.71,0,0,1-3.29.7,6.44,6.44,0,0,1-3.88-.9,7.31,7.31,0,0,1-2.06-3.55l-.58-1.71-2.95,2.48q1.24,2.83,2.51,6.66a8.76,8.76,0,0,1-3.21,4.16,9,9,0,0,1-5.26,1.53,27.36,27.36,0,0,1-3.11-.2v1.29l5.95,3q2.79,0,5.1-2.95a15.7,15.7,0,0,0,3-6.66,5.22,5.22,0,0,0,3.68,1.45,11.23,11.23,0,0,0,3.42-.4,4.63,4.63,0,0,0,2.21-1.55,4.75,4.75,0,0,0,4.2,1.95A5.12,5.12,0,0,0,239.5,259q1.58,1.95,5.61,1.95a4,4,0,0,0,.88-.09l1.87-2.18q1.53,2.27,5.67,2.27h0A12.59,12.59,0,0,0,259,260q2.28-2.49,2.28-7.21V233.5L258,234.84Zm9.26,5.26h1.1l2.15-4.68V233.5l-3.25,1.34Zm84.79-26.26,3.24-1.34v19.28q0,4.72-2.28,7.21a12.59,12.59,0,0,1-5.46.93h-.48q-3.93,0-5.77-1.29a5.65,5.65,0,0,1-2.13-4.41l-.4.2-.42.22,0,0-2.82,1.44a41.51,41.51,0,0,1-6.72,2.82,25.93,25.93,0,0,1-6.67,1,10.19,10.19,0,0,1-3.6-.51,5.67,5.67,0,0,1-2.35-1.69,4,4,0,0,1-2.28,1.69,16,16,0,0,1-4.7.51h-5.77a5,5,0,0,1-4.57-2.67h-.13l-1,1.43a50.39,50.39,0,0,0-10.26-1.4,6.83,6.83,0,0,0-1.18.09l1.13,7.89.14,1.15.11,1.16,0,1-2.1,3.26h-1.09a30,30,0,0,0-.36-6.12l-1.26-8.63a6,6,0,0,1,4.34-3.42,15.2,15.2,0,0,1,2.27-6.47,4.64,4.64,0,0,1,3.77-2.35,3.75,3.75,0,0,1,2.81,1.33,14.59,14.59,0,0,1,2.35,4.05,12.53,12.53,0,0,0,2.47,4,4.76,4.76,0,0,0,3.32,1.08h5.53a8.68,8.68,0,0,0,3.94-.57l-9.93-12.27,1.69-3.94,14.16-6.1-.7,4.17-11.54,4.57,9.18,11.39a7.44,7.44,0,0,0,2.67,2.2,10,10,0,0,0,3.7.55h0a29.16,29.16,0,0,0,11-2.19l1.35-.55a10,10,0,0,1,1-.43c.29-.11.56-.22.8-.33l1.13-.47L334.83,251l-1-.37a19.13,19.13,0,0,0-5.72-.91,12.16,12.16,0,0,0-3.61.51l1-3.66a7.42,7.42,0,0,1,3.35-.64,16.11,16.11,0,0,1,4.37.64,32.65,32.65,0,0,1,3.73,1.37,22.06,22.06,0,0,0,8.11,2h.63l-.71,3.22h-.27a8.74,8.74,0,0,0-3.46,1,2.67,2.67,0,0,0,1.88,1.66,18,18,0,0,0,4.64.42h.67a12.07,12.07,0,0,0,3.67-.46ZM297.26,255.5c-.13-.28-.29-.63-.5-1l-.45-.91c-1.06-2.24-2.26-3.35-3.61-3.35q-2.34,0-3.26,4.29l.8,0A31.6,31.6,0,0,1,297.26,255.5Zm64.08-20.66V261.1h1.1l2.15-4.68V233.5Z" style="fill:url(#linear-gradient-2)"/></svg>